<?xml version="1.0" encoding="UTF-8"?><svg id="Layer_2" xmlns="http://www.w3.org/2000/svg" xmlns:xlink="http://www.w3.org/1999/xlink" viewBox="0 0 124.24 124.24"><defs><linearGradient id="linear-gradient" x1="28.83" y1="49.21" x2="88.28" y2="92.33" gradientUnits="userSpaceOnUse"><stop offset="0" stop-color="#136184"/><stop offset=".32" stop-color="#1e9cd7"/><stop offset=".53" stop-color="#00858b"/><stop offset=".99" stop-color="#00d343"/></linearGradient><linearGradient id="linear-gradient-2" x1="32.03" y1="44.81" x2="91.48" y2="87.93" xlink:href="#linear-gradient"/></defs><g id="Layer_1-2"><g><circle cx="62.12" cy="62.12" r="59.53" style="fill:#fff; stroke:#39a935; stroke-miterlimit:10; stroke-width:5.19px;"/><g><path d="M77.19,71.98l4.83,4.92s-19.43,30.1-55.95,14.49c33.26,18.06,66.49-5.09,66.49-5.09l4.79,5.59,8.85-30.74-29.01,10.83Z" style="fill:url(#linear-gradient);"/><path d="M35.53,79.34h8.42c.48,0,.88-.15,1.21-.46,.33-.3,.49-.7,.49-1.17v-14.48h6.65l7.44,14.35c.52,1.17,1.41,1.76,2.67,1.76h8.68c.35,0,.66-.14,.95-.42,.28-.28,.42-.6,.42-.95,0-.22-.06-.46-.2-.72l-8.94-16.05c2.52-1.13,4.5-2.76,5.94-4.89,1.44-2.13,2.15-4.72,2.15-7.76,0-4.74-1.6-8.4-4.79-10.99-3.2-2.59-7.64-3.88-13.34-3.88h-17.74c-.44,0-.82,.15-1.14,.46-.33,.31-.49,.7-.49,1.17v42.4c0,.44,.16,.82,.49,1.14,.33,.33,.71,.49,1.14,.49Zm10.11-36.6h7.5c2.04,0,3.58,.51,4.6,1.53,1.02,1.02,1.53,2.4,1.53,4.14s-.52,3.1-1.57,4.08c-1.04,.98-2.57,1.47-4.57,1.47h-7.5v-11.22Z" style="fill:url(#linear-gradient-2);"/></g></g></g></svg>