<svg xmlns="http://www.w3.org/2000/svg" xmlns:xlink="http://www.w3.org/1999/xlink" viewBox="0 0 392.58 161.11"><defs><linearGradient id="a" x1="176.39" x2="23.56" y1="129.31" y2="147.59" gradientUnits="userSpaceOnUse"><stop offset="0" stop-color="#136184"/><stop offset=".32" stop-color="#1e9cd7"/><stop offset=".53" stop-color="#00858b"/><stop offset=".99" stop-color="#00d343"/></linearGradient><linearGradient xlink:href="#a" id="c" x1="174.66" x2="20.26" y1="115.45" y2="133.93"/><linearGradient xlink:href="#a" id="e" x1="370.24" x2="208.27" y1="96.04" y2="22.41"/><linearGradient xlink:href="#a" id="f" x1="380.98" x2="219.01" y1="72.41" y2="-1.21"/><linearGradient xlink:href="#a" id="g" x1="392.16" x2="230.19" y1="47.8" y2="-25.82"/><linearGradient xlink:href="#a" id="h" x1="370.05" x2="208.08" y1="96.04" y2="22.41"/><linearGradient xlink:href="#a" id="i" x1="380.79" x2="218.81" y1="72.41" y2="-1.21"/><linearGradient xlink:href="#a" id="j" x1="391.97" x2="230" y1="47.8" y2="-25.82"/><linearGradient xlink:href="#a" id="k" x1="384.68" x2="235.63" y1="57.91" y2="-9.84"/><linearGradient id="b" x1="242.57" x2="242.24" y1="43.74" y2="18.52" gradientUnits="userSpaceOnUse"><stop offset="0" stop-color="#fff"/><stop offset=".99" stop-color="#fff" stop-opacity="0"/></linearGradient><linearGradient xlink:href="#b" id="l" x1="304.1" x2="303.77" y1="42.94" y2="17.73"/><linearGradient xlink:href="#b" id="m" x1="363.53" x2="363.2" y1="42.17" y2="16.95"/><radialGradient id="d" cx="-2793.45" cy="579.72" r="49.58" fx="-2793.45" fy="579.72" gradientTransform="rotate(158.24 -1185.359 596.447) scale(.91 1.17)" gradientUnits="userSpaceOnUse"><stop offset=".25" stop-color="#fff"/><stop offset=".99" stop-color="#fff" stop-opacity="0"/></radialGradient></defs><path d="m228.9 100.9-4.19-8.83c-.02-.06-.06-.08-.11-.08h-4.84c-.08 0-.11.04-.11.11v8.72c0 .19-.09.29-.29.29h-1.45c-.19 0-.29-.09-.29-.29V81.44c0-.19.09-.29.29-.29h7.38c1.63 0 2.95.51 3.96 1.52 1.01 1.02 1.51 2.34 1.51 3.98 0 1.33-.36 2.46-1.08 3.39-.72.93-1.7 1.53-2.93 1.8-.08.04-.1.08-.06.14l4.28 8.78s.03.08.03.14c0 .13-.08.2-.23.2h-1.51c-.17 0-.29-.07-.34-.2Zm-9.26-17.87v7.21c0 .08.04.11.11.11h5.3c1.1 0 2-.34 2.68-1.03.68-.68 1.03-1.58 1.03-2.68s-.34-2-1.03-2.69-1.58-1.04-2.68-1.04h-5.3c-.08 0-.11.04-.11.11ZM246.96 82.92h-10.49c-.08 0-.11.04-.11.11v7.04c0 .08.04.11.11.11h7.35c.19 0 .29.1.29.29v1.2c0 .19-.1.28-.29.28h-7.35c-.08 0-.11.04-.11.11v7.15c0 .08.04.11.11.11h10.49c.19 0 .29.09.29.28v1.2c0 .19-.1.29-.29.29h-12.34c-.19 0-.29-.09-.29-.29V81.42c0-.19.09-.29.29-.29h12.34c.19 0 .29.1.29.29v1.2c0 .19-.1.28-.29.28ZM251.54 99.87c-1.24-.97-1.87-2.26-1.87-3.88v-.88c0-.19.09-.29.28-.29h1.4c.19 0 .29.09.29.29v.77c0 1.1.46 1.99 1.37 2.66.91.67 2.17 1.01 3.79 1.01 1.46 0 2.57-.31 3.33-.93.76-.62 1.14-1.44 1.14-2.47 0-.66-.18-1.23-.53-1.71-.35-.47-.89-.92-1.62-1.34-.73-.42-1.76-.9-3.09-1.45-1.42-.57-2.53-1.07-3.32-1.5-.79-.43-1.42-.98-1.91-1.65s-.73-1.52-.73-2.55c0-1.6.56-2.84 1.67-3.72 1.11-.88 2.64-1.33 4.57-1.33 2.11 0 3.77.49 4.99 1.48 1.22.99 1.82 2.3 1.82 3.93v.63c0 .19-.1.29-.29.29h-1.42c-.19 0-.29-.09-.29-.29v-.51c0-1.1-.43-2-1.3-2.71s-2.07-1.05-3.6-1.05c-1.35 0-2.38.28-3.11.83-.72.55-1.08 1.35-1.08 2.39 0 .68.17 1.25.53 1.7.35.45.85.84 1.51 1.17.66.33 1.67.77 3.04 1.3 1.39.57 2.5 1.1 3.35 1.6s1.53 1.1 2.05 1.81c.52.71.78 1.58.78 2.61 0 1.6-.59 2.87-1.77 3.82-1.18.95-2.81 1.42-4.9 1.42s-3.84-.48-5.09-1.45ZM278.41 82.66c1.02 1.03 1.52 2.38 1.52 4.05s-.52 2.98-1.55 3.99c-1.04 1.01-2.4 1.51-4.09 1.51h-5.56c-.08 0-.11.04-.11.11v8.49c0 .19-.1.29-.29.29h-1.45c-.19 0-.29-.09-.29-.29V81.4c0-.19.09-.29.29-.29h7.5c1.67 0 3.02.51 4.03 1.54Zm-1.52 6.83c.7-.69 1.05-1.61 1.05-2.75s-.35-2.09-1.05-2.79c-.7-.7-1.62-1.05-2.74-1.05h-5.41c-.08 0-.11.04-.11.11v7.41c0 .08.04.11.11.11h5.41c1.12 0 2.03-.35 2.74-1.04ZM285.55 100.5a5.846 5.846 0 0 1-2.38-2.32c-.56-1-.84-2.15-.84-3.46v-7.18c0-1.31.28-2.46.84-3.46.56-1 1.35-1.77 2.38-2.32 1.03-.55 2.21-.83 3.56-.83s2.54.28 3.58.83a5.81 5.81 0 0 1 2.39 2.32c.56 1 .84 2.15.84 3.46v7.18c0 1.31-.28 2.46-.84 3.46-.56 1-1.36 1.77-2.39 2.32-1.04.55-2.23.83-3.58.83s-2.54-.27-3.56-.83Zm7.04-2.22c.87-.87 1.31-2.03 1.31-3.48v-7.3c0-1.44-.44-2.61-1.31-3.49s-2.03-1.33-3.48-1.33-2.58.44-3.45 1.33c-.88.88-1.31 2.05-1.31 3.49v7.3c0 1.44.44 2.6 1.31 3.48.87.87 2.02 1.31 3.45 1.31s2.6-.44 3.48-1.31ZM312.14 81.15h1.45c.19 0 .28.1.28.29v19.38c0 .19-.09.29-.28.29h-1.43c-.13 0-.25-.07-.34-.2l-9.72-15.82c-.02-.06-.05-.08-.09-.07-.04 0-.06.04-.06.1l.03 15.7c0 .19-.09.29-.29.29h-1.45c-.19 0-.29-.09-.29-.29V81.44c0-.19.09-.29.29-.29h1.42c.13 0 .25.07.34.2l9.72 15.82c.02.06.05.08.08.07s.06-.04.06-.1l-.03-15.7c0-.19.1-.29.29-.29ZM319.19 99.87c-1.24-.97-1.87-2.26-1.87-3.88v-.88c0-.19.09-.29.28-.29h1.4c.19 0 .29.09.29.29v.77c0 1.1.46 1.99 1.37 2.66.91.67 2.17 1.01 3.79 1.01 1.46 0 2.57-.31 3.33-.93.76-.62 1.14-1.44 1.14-2.47 0-.66-.18-1.23-.53-1.71-.35-.47-.89-.92-1.62-1.34-.73-.42-1.76-.9-3.09-1.45-1.42-.57-2.53-1.07-3.32-1.5-.79-.43-1.42-.98-1.91-1.65s-.73-1.52-.73-2.55c0-1.6.56-2.84 1.67-3.72 1.11-.88 2.64-1.33 4.57-1.33 2.11 0 3.77.49 4.99 1.48 1.22.99 1.82 2.3 1.82 3.93v.63c0 .19-.1.29-.29.29h-1.42c-.19 0-.29-.09-.29-.29v-.51c0-1.1-.43-2-1.3-2.71s-2.07-1.05-3.6-1.05c-1.35 0-2.38.28-3.11.83-.72.55-1.08 1.35-1.08 2.39 0 .68.17 1.25.53 1.7.35.45.85.84 1.51 1.17.66.33 1.67.77 3.04 1.3 1.39.57 2.5 1.1 3.35 1.6s1.53 1.1 2.05 1.81c.52.71.78 1.58.78 2.61 0 1.6-.59 2.87-1.77 3.82-1.18.95-2.81 1.42-4.9 1.42s-3.84-.48-5.09-1.45ZM334.45 100.81V81.43c0-.19.09-.29.29-.29h1.45c.19 0 .29.1.29.29v19.38c0 .19-.09.29-.29.29h-1.45c-.19 0-.29-.09-.29-.29ZM351.12 90.87c1.03.42 1.8 1.04 2.34 1.85.53.82.8 1.81.8 2.96 0 1.71-.55 3.04-1.64 3.99s-2.53 1.42-4.32 1.42h-6.9c-.19 0-.29-.09-.29-.29V81.42c0-.19.09-.29.29-.29h6.7c1.84 0 3.29.46 4.35 1.37 1.05.91 1.58 2.19 1.58 3.85 0 1.04-.25 1.93-.75 2.66-.5.73-1.22 1.29-2.15 1.67-.09.06-.09.11 0 .17Zm-7.98-7.84v6.84c0 .08.04.11.11.11h4.84c1.2 0 2.15-.31 2.86-.94.71-.63 1.07-1.46 1.07-2.51 0-1.1-.36-1.98-1.07-2.64-.71-.66-1.67-.98-2.86-.98h-4.84c-.08 0-.11.04-.11.11Zm8.02 15.25c.71-.68 1.07-1.61 1.07-2.76s-.37-2.08-1.1-2.78-1.71-1.04-2.95-1.04h-4.93c-.08 0-.11.04-.11.11v7.38c0 .08.04.11.11.11h5.04c1.2 0 2.15-.34 2.86-1.03ZM358.28 100.81V81.43c0-.19.09-.29.29-.29h1.45c.19 0 .29.1.29.29v17.78c0 .08.04.11.11.11h10.06c.19 0 .29.09.29.28v1.2c0 .19-.09.29-.29.29h-11.91c-.19 0-.29-.09-.29-.29ZM386.38 82.92h-10.49c-.08 0-.11.04-.11.11v7.04c0 .08.04.11.11.11h7.35c.19 0 .29.1.29.29v1.2c0 .19-.1.28-.29.28h-7.35c-.08 0-.11.04-.11.11v7.15c0 .08.04.11.11.11h10.49c.19 0 .29.09.29.28v1.2c0 .19-.1.29-.29.29h-12.34c-.19 0-.29-.09-.29-.29V81.42c0-.19.09-.29.29-.29h12.34c.19 0 .29.1.29.29v1.2c0 .19-.1.28-.29.28ZM227.61 120.03c1.03.42 1.8 1.04 2.34 1.85.53.82.8 1.81.8 2.96 0 1.71-.55 3.04-1.64 3.99s-2.53 1.42-4.32 1.42h-6.9c-.19 0-.29-.09-.29-.29v-19.38c0-.19.09-.29.29-.29h6.7c1.84 0 3.29.46 4.35 1.37 1.05.91 1.58 2.19 1.58 3.85 0 1.04-.25 1.93-.75 2.66-.5.73-1.22 1.29-2.15 1.67-.09.06-.09.11 0 .17Zm-7.98-7.84v6.84c0 .08.04.11.11.11h4.84c1.2 0 2.15-.31 2.86-.94.71-.63 1.07-1.46 1.07-2.51 0-1.1-.36-1.98-1.07-2.64-.71-.66-1.67-.98-2.86-.98h-4.84c-.08 0-.11.04-.11.11Zm8.02 15.25c.71-.68 1.07-1.61 1.07-2.76s-.37-2.08-1.1-2.78-1.71-1.04-2.95-1.04h-4.93c-.08 0-.11.04-.11.11v7.38c0 .08.04.11.11.11h5.04c1.2 0 2.15-.34 2.86-1.03ZM237.79 129.69a5.81 5.81 0 0 1-2.39-2.24c-.57-.96-.85-2.08-.85-3.35v-13.51c0-.19.09-.29.29-.29h1.45c.19 0 .29.1.29.29v13.57c0 1.35.44 2.45 1.31 3.29.87.84 2.02 1.27 3.45 1.27s2.57-.42 3.45-1.27c.87-.85 1.31-1.94 1.31-3.29v-13.57c0-.19.09-.29.29-.29h1.45c.19 0 .29.1.29.29v13.51c0 1.27-.28 2.39-.84 3.35-.56.96-1.35 1.71-2.38 2.24-1.03.53-2.21.8-3.56.8s-2.51-.27-3.53-.8ZM253.19 129.03c-1.24-.97-1.87-2.26-1.87-3.88v-.88c0-.19.09-.29.28-.29h1.4c.19 0 .29.09.29.29v.77c0 1.1.46 1.99 1.37 2.66.91.67 2.17 1.01 3.79 1.01 1.46 0 2.57-.31 3.33-.93.76-.62 1.14-1.44 1.14-2.47 0-.66-.18-1.23-.53-1.71-.35-.47-.89-.92-1.62-1.34-.73-.42-1.76-.9-3.09-1.45-1.42-.57-2.53-1.07-3.32-1.5-.79-.43-1.42-.98-1.91-1.65s-.73-1.52-.73-2.55c0-1.6.56-2.84 1.67-3.72 1.11-.88 2.64-1.33 4.57-1.33 2.11 0 3.77.49 4.99 1.48 1.22.99 1.82 2.3 1.82 3.93v.63c0 .19-.1.29-.29.29h-1.42c-.19 0-.29-.09-.29-.29v-.51c0-1.1-.43-2-1.3-2.71s-2.07-1.05-3.6-1.05c-1.35 0-2.38.28-3.11.83-.72.55-1.08 1.35-1.08 2.39 0 .68.17 1.25.53 1.7.35.45.85.84 1.51 1.17.66.33 1.67.77 3.04 1.3 1.39.57 2.5 1.1 3.35 1.6s1.53 1.1 2.05 1.81c.52.71.78 1.58.78 2.61 0 1.6-.59 2.87-1.77 3.82-1.18.95-2.81 1.42-4.9 1.42s-3.84-.48-5.09-1.45ZM268.45 129.97v-19.38c0-.19.09-.29.29-.29h1.45c.19 0 .29.1.29.29v19.38c0 .19-.09.29-.29.29h-1.45c-.19 0-.29-.09-.29-.29ZM287.29 110.31h1.45c.19 0 .28.1.28.29v19.38c0 .19-.09.29-.28.29h-1.43c-.13 0-.25-.07-.34-.2l-9.72-15.82c-.02-.06-.05-.08-.09-.07-.04 0-.06.04-.06.1l.03 15.7c0 .19-.09.29-.29.29h-1.45c-.19 0-.29-.09-.29-.29V110.6c0-.19.09-.29.29-.29h1.42c.13 0 .25.07.34.2l9.72 15.82c.02.06.05.08.08.07s.06-.04.06-.1l-.03-15.7c0-.19.1-.29.29-.29ZM305.9 112.07h-10.49c-.08 0-.11.04-.11.11v7.04c0 .08.04.11.11.11h7.35c.19 0 .29.1.29.29v1.2c0 .19-.1.28-.29.28h-7.35c-.08 0-.11.04-.11.11v7.15c0 .08.04.11.11.11h10.49c.19 0 .29.09.29.28v1.2c0 .19-.1.29-.29.29h-12.34c-.19 0-.29-.09-.29-.29v-19.38c0-.19.09-.29.29-.29h12.34c.19 0 .29.1.29.29v1.2c0 .19-.1.28-.29.28ZM310.47 129.03c-1.24-.97-1.87-2.26-1.87-3.88v-.88c0-.19.09-.29.28-.29h1.4c.19 0 .29.09.29.29v.77c0 1.1.46 1.99 1.37 2.66.91.67 2.17 1.01 3.79 1.01 1.46 0 2.57-.31 3.33-.93.76-.62 1.14-1.44 1.14-2.47 0-.66-.18-1.23-.53-1.71-.35-.47-.89-.92-1.62-1.34-.73-.42-1.76-.9-3.09-1.45-1.42-.57-2.53-1.07-3.32-1.5-.79-.43-1.42-.98-1.91-1.65s-.73-1.52-.73-2.55c0-1.6.56-2.84 1.67-3.72 1.11-.88 2.64-1.33 4.57-1.33 2.11 0 3.77.49 4.99 1.48 1.22.99 1.82 2.3 1.82 3.93v.63c0 .19-.1.29-.29.29h-1.42c-.19 0-.29-.09-.29-.29v-.51c0-1.1-.43-2-1.3-2.71s-2.07-1.05-3.6-1.05c-1.35 0-2.38.28-3.11.83-.72.55-1.08 1.35-1.08 2.39 0 .68.17 1.25.53 1.7.35.45.85.84 1.51 1.17.66.33 1.67.77 3.04 1.3 1.39.57 2.5 1.1 3.35 1.6s1.53 1.1 2.05 1.81c.52.71.78 1.58.78 2.61 0 1.6-.59 2.87-1.77 3.82-1.18.95-2.81 1.42-4.9 1.42s-3.84-.48-5.09-1.45ZM326.4 129.03c-1.24-.97-1.87-2.26-1.87-3.88v-.88c0-.19.09-.29.28-.29h1.4c.19 0 .29.09.29.29v.77c0 1.1.46 1.99 1.37 2.66.91.67 2.17 1.01 3.79 1.01 1.46 0 2.57-.31 3.33-.93.76-.62 1.14-1.44 1.14-2.47 0-.66-.18-1.23-.53-1.71-.35-.47-.89-.92-1.62-1.34-.73-.42-1.76-.9-3.09-1.45-1.42-.57-2.53-1.07-3.32-1.5-.79-.43-1.42-.98-1.91-1.65s-.73-1.52-.73-2.55c0-1.6.56-2.84 1.67-3.72 1.11-.88 2.64-1.33 4.57-1.33 2.11 0 3.77.49 4.99 1.48 1.22.99 1.82 2.3 1.82 3.93v.63c0 .19-.1.29-.29.29h-1.42c-.19 0-.29-.09-.29-.29v-.51c0-1.1-.43-2-1.3-2.71s-2.07-1.05-3.6-1.05c-1.35 0-2.38.28-3.11.83-.72.55-1.08 1.35-1.08 2.39 0 .68.17 1.25.53 1.7.35.45.85.84 1.51 1.17.66.33 1.67.77 3.04 1.3 1.39.57 2.5 1.1 3.35 1.6s1.53 1.1 2.05 1.81c.52.71.78 1.58.78 2.61 0 1.6-.59 2.87-1.77 3.82-1.18.95-2.81 1.42-4.9 1.42s-3.84-.48-5.09-1.45ZM218.28 158.19c-1.24-.97-1.87-2.26-1.87-3.88v-.88c0-.19.09-.29.28-.29h1.4c.19 0 .29.09.29.29v.77c0 1.1.46 1.99 1.37 2.66.91.67 2.17 1.01 3.79 1.01 1.46 0 2.57-.31 3.33-.93.76-.62 1.14-1.44 1.14-2.47 0-.66-.18-1.23-.53-1.71-.35-.47-.89-.92-1.62-1.34-.73-.42-1.76-.9-3.09-1.45-1.42-.57-2.53-1.07-3.32-1.5-.79-.43-1.42-.98-1.91-1.65s-.73-1.52-.73-2.55c0-1.6.56-2.84 1.67-3.72 1.11-.88 2.64-1.33 4.57-1.33 2.11 0 3.77.49 4.99 1.48 1.22.99 1.82 2.3 1.82 3.93v.63c0 .19-.1.29-.29.29h-1.42c-.19 0-.29-.09-.29-.29v-.51c0-1.1-.43-2-1.3-2.71s-2.07-1.05-3.6-1.05c-1.35 0-2.38.28-3.11.83-.72.55-1.08 1.35-1.08 2.39 0 .68.17 1.25.53 1.7.35.45.85.84 1.51 1.17.66.33 1.67.77 3.04 1.3 1.39.57 2.5 1.1 3.35 1.6s1.53 1.1 2.05 1.81c.52.71.78 1.58.78 2.61 0 1.6-.59 2.87-1.77 3.82-1.18.95-2.81 1.42-4.9 1.42s-3.84-.48-5.09-1.45ZM236.13 158.82a5.846 5.846 0 0 1-2.38-2.32c-.56-1-.84-2.15-.84-3.46v-7.18c0-1.31.28-2.46.84-3.46.56-1 1.35-1.77 2.38-2.32 1.03-.55 2.21-.83 3.56-.83s2.54.28 3.58.83a5.81 5.81 0 0 1 2.39 2.32c.56 1 .84 2.15.84 3.46v7.18c0 1.31-.28 2.46-.84 3.46-.56 1-1.36 1.77-2.39 2.32-1.04.55-2.23.83-3.58.83s-2.54-.27-3.56-.83Zm7.04-2.22c.87-.87 1.31-2.03 1.31-3.48v-7.3c0-1.44-.44-2.61-1.31-3.49s-2.03-1.33-3.48-1.33-2.58.44-3.45 1.33c-.88.88-1.31 2.05-1.31 3.49v7.3c0 1.44.44 2.6 1.31 3.48.87.87 2.02 1.31 3.45 1.31s2.6-.44 3.48-1.31ZM250.55 159.13v-19.38c0-.19.09-.29.29-.29h1.45c.19 0 .29.1.29.29v17.78c0 .08.04.11.11.11h10.06c.19 0 .29.09.29.28v1.2c0 .19-.09.29-.29.29h-11.91c-.19 0-.29-.09-.29-.29ZM269.05 158.84a5.81 5.81 0 0 1-2.39-2.24c-.57-.96-.85-2.08-.85-3.35v-13.51c0-.19.09-.29.29-.29h1.45c.19 0 .29.1.29.29v13.57c0 1.35.44 2.45 1.31 3.29.87.84 2.02 1.27 3.45 1.27s2.57-.42 3.45-1.27c.87-.85 1.31-1.94 1.31-3.29v-13.57c0-.19.09-.29.29-.29h1.45c.19 0 .29.1.29.29v13.51c0 1.27-.28 2.39-.84 3.35-.56.96-1.35 1.71-2.38 2.24-1.03.53-2.21.8-3.56.8s-2.51-.27-3.53-.8ZM296.1 139.75v1.23c0 .19-.09.29-.29.29h-5.59c-.08 0-.11.04-.11.11v17.75c0 .19-.1.29-.29.29h-1.45c-.19 0-.29-.09-.29-.29v-17.75c0-.08-.04-.11-.11-.11h-5.36c-.19 0-.29-.1-.29-.29v-1.23c0-.19.09-.29.29-.29h13.19c.19 0 .29.1.29.29ZM299.29 159.13v-19.38c0-.19.09-.29.29-.29h1.45c.19 0 .29.1.29.29v19.38c0 .19-.09.29-.29.29h-1.45c-.19 0-.29-.09-.29-.29ZM308.55 158.82a5.846 5.846 0 0 1-2.38-2.32c-.56-1-.84-2.15-.84-3.46v-7.18c0-1.31.28-2.46.84-3.46.56-1 1.35-1.77 2.38-2.32 1.03-.55 2.21-.83 3.56-.83s2.54.28 3.58.83a5.81 5.81 0 0 1 2.39 2.32c.56 1 .84 2.15.84 3.46v7.18c0 1.31-.28 2.46-.84 3.46-.56 1-1.36 1.77-2.39 2.32-1.04.55-2.23.83-3.58.83s-2.54-.27-3.56-.83Zm7.04-2.22c.87-.87 1.31-2.03 1.31-3.48v-7.3c0-1.44-.44-2.61-1.31-3.49s-2.03-1.33-3.48-1.33-2.58.44-3.45 1.33c-.88.88-1.31 2.05-1.31 3.49v7.3c0 1.44.44 2.6 1.31 3.48.87.87 2.02 1.31 3.45 1.31s2.6-.44 3.48-1.31ZM335.14 139.46h1.45c.19 0 .28.1.28.29v19.38c0 .19-.09.29-.28.29h-1.43c-.13 0-.25-.07-.34-.2l-9.72-15.82c-.02-.06-.05-.08-.09-.07-.04 0-.06.04-.06.1l.03 15.7c0 .19-.09.29-.29.29h-1.45c-.19 0-.29-.09-.29-.29v-19.38c0-.19.09-.29.29-.29h1.42c.13 0 .25.07.34.2l9.72 15.82c.02.06.05.08.08.07s.06-.04.06-.1l-.03-15.7c0-.19.1-.29.29-.29ZM342.19 158.19c-1.24-.97-1.87-2.26-1.87-3.88v-.88c0-.19.09-.29.28-.29h1.4c.19 0 .29.09.29.29v.77c0 1.1.46 1.99 1.37 2.66.91.67 2.17 1.01 3.79 1.01 1.46 0 2.57-.31 3.33-.93.76-.62 1.14-1.44 1.14-2.47 0-.66-.18-1.23-.53-1.71-.35-.47-.89-.92-1.62-1.34-.73-.42-1.76-.9-3.09-1.45-1.42-.57-2.53-1.07-3.32-1.5-.79-.43-1.42-.98-1.91-1.65s-.73-1.52-.73-2.55c0-1.6.56-2.84 1.67-3.72 1.11-.88 2.64-1.33 4.57-1.33 2.11 0 3.77.49 4.99 1.48 1.22.99 1.82 2.3 1.82 3.93v.63c0 .19-.1.29-.29.29h-1.42c-.19 0-.29-.09-.29-.29v-.51c0-1.1-.43-2-1.3-2.71s-2.07-1.05-3.6-1.05c-1.35 0-2.38.28-3.11.83-.72.55-1.08 1.35-1.08 2.39 0 .68.17 1.25.53 1.7.35.45.85.84 1.51 1.17.66.33 1.67.77 3.04 1.3 1.39.57 2.5 1.1 3.35 1.6s1.53 1.1 2.05 1.81c.52.71.78 1.58.78 2.61 0 1.6-.59 2.87-1.77 3.82-1.18.95-2.81 1.42-4.9 1.42s-3.84-.48-5.09-1.45Z" style="fill:#868686"/><path d="m137.81 122.84 7.16 7.28s-59.21 54.29-128.23 7.58c54.82 48.68 143.84 6.35 143.84 6.35l7.1 8.28 13.11-45.54-42.98 16.04Z" style="fill:url(#a)"/><path d="m11.21 109.4.44 1.15c.03.07.06.14.09.22-.06-.14-.11-.28-.16-.43-.13-.31-.25-.63-.36-.94Z" style="fill:#b1b1b1"/><path d="M75.94 39.39c5.3-6.16 7.98-3.02 16.58-6.53 8.59-3.51 7.32-6.98 11.02-15.74 1.37-3.24 2.66-5.61 3.76-7.31a73.675 73.675 0 0 0-8.19-3.63C61.25-7.95 19.12 11.2 4.84 48.95c2.78 3.46 5.33 7.25 5.51 9.66.4 5.43 5.35 6.71 11.71 13.8 6.35 7.08 3.42 6.13 1.43 11.1-2 4.97 2.46 11.77 5.59 16.8 1.91 3.08 1.96 7.55 1.47 13.39 1.79-.62 3.72-1.19 5.85-1.68 2.48-.57 5.53-.94 9.1-1.11 5.32-5.33 7.47-10.32 8.51-12.72 1.06-2.46-6.57-6.88-12.15-15.67-5.57-8.79-8.29-8.06-11.19-8.95-2.9-.89-2.68-2.52-3.64-4.03-.96-1.5 4.6.95 6.65 1.05 2.06.1-1.54-3.53-7.46-7.83-5.92-4.3-7.02-.33-7.69-2.87-.67-2.54 1.77-3.72 4.52-4.98 2.75-1.26 4.83.85 5.8 4.36.98 3.51 3.69 3.38 3.35-1.32-.34-4.7 3.77-7.54 12.85-8.92 9.08-1.37 12.15 3.07 14.71.03 2.56-3.04 2.79-10.53 1.31-16.51-1.48-5.98-5.11-2.76-10.48 1.66s-3.34-2.53-.69-8.11 6.01-1.18 9.87-.03c3.85 1.15 4.61 6.01 8.26 2.37 3.64-3.64 3.68-10.62-1.09-13.92-4.77-3.3-17 3.45-9.99-.78C63.96 9.5 67.68 7.18 71.74 7.4c4.06.23 2.4 5.04 4.58 5.71s5.99-3.05 4.65-.98c-1.34 2.07.48 3.32-.58 8.07s-4.38 6.36-7.59 11.16c-3.22 4.8-2.15 14.19 3.15 8.03ZM131.44 29.96c.41 3.42.24 8.24-3.05 11.14-5.54 4.88-4.47-3.57-11.45-3.51-6.97.06-11.81 6.27-15.67 11.26-3.86 4.99 4.13 8.83-.39 8.71-4.53-.12-5.82-3.66-5.44-6.47.38-2.81-4.51-3.49-4.69.06-.18 3.55.88 7.09-2.16 9.86-3.03 2.77-6.51 5.19-5.31 7.35 1.19 2.16 3.21 3.39 6.6 1.7 3.39-1.69 5.17-3.5 9.73 1.82 4.56 5.32 11.83 4.7 12.98 7.23 1.15 2.53-1.73 4.12-6.46 3.02s-6.88-5.04-9.42-7.42-9.09-4.73-13.05-3.06c-3.95 1.67-2.97 3.37-7.17 5.42-4.19 2.05-4.97 7.19-4.43 11.87.54 4.68 2.96 5.87 6.62 7.04 3.65 1.17 8.05 2.53 7.54 5.1-.44 2.22-.72 5.22-.68 8 0 .44.02.87.04 1.29.17 3.11-1.68 1.18-2.79 7.72-.18 1.09-.39 2.15-.58 3.19-.99 5.19-1.85 9.44.37 9.87 2.66.52 5.65 1.44 12.33-4.73s7.77-5.77 8.74-7.59c.97-1.83.8-3.42 3.37-5.98 2.58-2.56 9.04-5.86 10.34-8.05 1.29-2.18-1.24-.75-3.6-2.1-2.35-1.35-1.39-1.38-2.33-5.63-.94-4.25-1.08-9.23-1.6-10.88-.52-1.66.7-2.72 1.31-1.8.61.92 1.02 6.28 1.31 9.76.29 3.47.33 6.6 1.33 7.16 1 .56 8.8.24 11.07-1.77 2.27-2.01 2.96-1.81 1.55-2.97-1.41-1.16-5.08-4.94-4.96-6.61.11-1.67 1.38-.31 2.24.96.86 1.27 4.72 2.84 6.79 4.44 2.02 1.56 6.25 5.49 8.1 13.35 1.34-2.6 2.55-5.31 3.59-8.12 9.22-24.69 4.28-51.2-10.75-70.61Z" style="fill:#868686"/><path d="M103.61 123.7c-4.69 4.53-3.5 7.84-.91 6.66s8.32-7.75 6.55-9.13c0 0-.94-2.07-5.63 2.47Z" style="fill:#868686"/><path d="M134.57 40.3c-1.99-5.45-5.26-10.87-9.74-15.86-3-.35-7.47.73-13.27 3.33 1.77 1.97 3.06 4.11 3.85 6.26 7.97.96 14.45 3.13 19.16 6.27ZM101.05 48.56c2.28.4 4.52.36 6.54-.13a118.6 118.6 0 0 0-7.1-14.81c.44 4.76.62 9.78.56 14.94ZM2.52 91.42c-.02-.22-.04-.43-.05-.65-.15-.5-.28-1-.41-1.49.14.71.3 1.43.47 2.14ZM101.04 49.39c-.17 9.66-1.16 19.82-2.85 29.82 6.08 1.05 12.03.96 17.41-.35-1.38-9.93-3.96-20.02-7.69-29.6-2.12.52-4.48.56-6.87.14Z" style="fill:none"/><path d="M98.05 80.06c-1.73 9.98-4.14 19.78-7.09 28.7 8.74 1.52 17.31 1.38 25.04-.51 1.14-8.89 1.03-18.63-.28-28.55-5.46 1.33-11.5 1.43-17.67.36ZM87.85 40.74c4.3-2.66 8.54-5.05 12.65-7.12-5.24 0-10.58.38-15.94 1.1.62 2.05 1.73 4.1 3.29 6.02ZM52.48 26.18c-9.55.73-18.47 2.83-26.11 6.22-1.51 7.11-1.07 14.88 1.22 22.7 7.55-5.03 16.34-9.42 25.75-12.9-1.61-5.52-1.92-11-.86-16.02ZM7.15 47.31c-.27.39-.54.78-.8 1.18-.8 1.22-1.49 2.47-2.1 3.72a73.045 73.045 0 0 0-2.51 35.44c.21.88.44 1.77.7 2.66-.15-5 1.54-10.49 5.27-16.22.26-.4.53-.79.8-1.19-2.57-8.82-3.07-17.57-1.37-25.59ZM9.11 73.14c2.69 8.82 7.46 17.69 14.21 25.96 4.26-6.23 9.94-12.94 16.51-19.69-6.02-7.38-10.29-15.31-12.69-23.19-7.47 5.12-13.68 10.85-18.03 16.92ZM109.31 26.24a23.11 23.11 0 0 0-4.49-3.13c-1.15 3-2.59 6.51-4.33 10.51 3.84-2.38 7.32-4.31 10.42-5.8-.49-.54-1.03-1.07-1.6-1.58Z" style="fill:none"/><path d="M90.7 109.52c-2.99 8.88-6.51 16.87-10.43 23.3 9.85 1.71 19.5 1.55 28.21-.57 3.75-6.43 6.21-14.4 7.42-23.24-7.78 1.89-16.4 2.04-25.2.51ZM54.29 42.37c1.66 5.44 4.61 10.92 8.77 16.02 7.87-6.33 16.08-12.22 24.11-17.22-1.64-2.01-2.81-4.18-3.46-6.33-9.99 1.42-20 4.02-29.42 7.53Z" style="fill:none"/><path d="M27.79 55.77c2.39 7.83 6.63 15.71 12.61 23.04 6.62-6.75 14.13-13.53 21.98-19.88-4.23-5.18-7.21-10.73-8.9-16.26-9.38 3.56-18.15 8.02-25.69 13.1ZM7.95 74.84C4.22 80.58 2.52 86.04 2.66 91c2.48 8.13 6.87 16.3 13.09 23.91.59-3.63 2.69-8.36 6.43-14.09.26-.4.52-.8.8-1.2-6.75-8.27-11.52-17.15-14.22-25.97-.28.4-.54.79-.8 1.19ZM139.93 45.21a72.29 72.29 0 0 0-5.5-10.08c-2.46-3.77-5.2-7.23-8.19-10.39-.36-.12-.74-.21-1.16-.27 4.55 5.07 7.86 10.57 9.89 16.1 1.99 1.38 3.65 2.93 4.96 4.64ZM116.56 108.85c-1.16 8.83-3.59 16.79-7.34 23.22 7.53-1.94 14.33-5.37 19.93-10.35.06-.06.13-.12.19-.18 1.18-1.41 2.3-2.86 3.35-4.34 2.8-5.85 4.02-12.54 3.81-19.66-.68.71-1.39 1.39-2.14 2.06-4.99 4.44-11.07 7.51-17.8 9.24ZM114.78 34.12c-4.34-.53-9.12-.71-14.29-.5 5.41 1.85 10.42 4.04 14.99 6.49.26-1.9.02-3.95-.7-5.99ZM83.32 28.43c-10.21-2.22-20.42-2.95-30.01-2.3-1.04 4.94-.74 10.34.85 15.78 9.44-3.42 19.48-5.93 29.5-7.25-.63-2.15-.75-4.28-.33-6.23Z" style="fill:none"/><path d="M108.14 133.82c-2.55 3.91-5.46 6.91-8.65 9.04 4.71-1.81 9.29-4.13 13.69-6.99a73.044 73.044 0 0 0 15.27-13.28c-5.52 4.8-12.19 8.12-19.55 10.02-.25.41-.5.81-.76 1.21ZM133.44 116.13a72.741 72.741 0 0 0 11.23-26.23c.85-4 1.35-8.08 1.52-12.17-1.13 7.23-4.19 13.88-9.25 19.35.23 6.87-.89 13.34-3.5 19.05ZM130.14 70.6c3.52-3.8 5.63-8.42 6.41-13.45-5.07-6.11-11.94-11.74-20.36-16.47-.3 1.98-1.14 3.81-2.53 5.31 6.98 7.73 12.55 16.13 16.48 24.61ZM113.06 45.33c1.32-1.43 2.12-3.16 2.41-5.05-4.56-2.51-9.56-4.75-14.96-6.66 4.57 3.65 8.77 7.58 12.56 11.71ZM116.18 79.58c1.39 9.9 1.57 19.62.47 28.5 6.69-1.72 12.73-4.77 17.69-9.19.74-.66 1.45-1.35 2.13-2.05-.35-8.06-2.52-16.66-6.31-25.19-.48.5-.97.98-1.5 1.45-3.5 3.12-7.76 5.26-12.48 6.48ZM67.87 146.16c-.95.49-1.89.83-2.81 1.04 5.59.65 11.27.65 16.92-.01-4.59.15-9.32-.2-14.11-1.03ZM36.68 13.33a35.41 35.41 0 0 0-5.25 2.08A72.305 72.305 0 0 0 9.69 39.68a43.23 43.23 0 0 0-2.02 6.43c4.36-5.91 10.63-10.62 18.19-14.04 1.62-7.12 5.2-13.57 10.83-18.75Z" style="fill:none"/><path d="M114.72 33.95c-.75-2.04-1.98-4.08-3.66-5.96-3.15 1.44-6.68 3.31-10.56 5.64 5.14-.27 9.9-.15 14.22.32ZM79.93 133.37c-.26.41-.51.82-.77 1.21-3.74 5.73-7.45 9.5-10.97 11.41 5.26.91 10.46 1.24 15.46.98 4.99-.7 9.95-1.93 14.78-3.7 3.3-2.14 6.32-5.21 8.96-9.26.26-.4.51-.8.76-1.21-8.72 2.12-18.37 2.28-28.22.57Z" style="fill:none"/><path d="M112.39 45.99c.19-.17.38-.35.56-.54-3.75-4.17-7.91-8.14-12.45-11.83 2.75 4.7 5.18 9.66 7.27 14.77 1.74-.45 3.32-1.24 4.62-2.4ZM116.21 40.51c8.43 4.63 15.32 10.17 20.4 16.21.69-5.06.05-10.51-1.87-15.95-4.75-3.23-11.25-5.5-19.27-6.55.76 2.15 1.01 4.3.74 6.3ZM108.1 49.2c3.83 9.55 6.5 19.62 7.96 29.53 4.65-1.2 8.85-3.31 12.29-6.38.52-.46 1.01-.94 1.48-1.43-3.88-8.54-9.38-17-16.3-24.81-.18.19-.38.38-.58.56-1.36 1.21-3.02 2.05-4.85 2.52Z" style="fill:none"/><path d="M137.04 57.24c4.97 6.06 8.12 12.6 9.18 19.17 0-.04 0-.08.01-.12a72.295 72.295 0 0 0-5.99-30.36c-1.34-1.8-3.05-3.43-5.1-4.88 1.95 5.53 2.6 11.06 1.9 16.19ZM60.17 12.61c-8.23-1.61-16.05-1.44-22.9.55-5.59 5.15-9.14 11.56-10.76 18.64 7.63-3.34 16.53-5.39 26.07-6.04 1.14-4.99 3.65-9.51 7.59-13.15ZM16.23 115.9c-.26 1.71-.16 3.15.26 4.33.27.34.56.67.84 1.01.64-.59 1.34-1.17 2.09-1.75-1.1-1.18-2.18-2.37-3.19-3.59ZM49.52 88.32a88.45 88.45 0 0 0 13.91 10.16c4.95-8.18 10.13-16.94 15.2-25.67a62.449 62.449 0 0 1-9.82-7.16c-2.23-2-4.26-4.09-6.06-6.26-7.79 6.43-15.24 13.27-21.82 20.07a84.19 84.19 0 0 0 8.6 8.87ZM90.23 43.23c1.14 1.02 2.37 1.9 3.63 2.65 2.37-4.3 4.6-8.42 6.63-12.26-4.06 2.13-8.25 4.58-12.51 7.29.67.8 1.42 1.58 2.25 2.32Z" style="fill:none"/><path d="M87.16 23.48c-.24-.15-.48-.31-.72-.46 1.16-1.03 2.53-1.79 4.05-2.29-6.15-6.57-12.63-11.31-19.03-14.09-3.83 1.25-7.31 3.17-10.25 5.79-.23-.05-.46-.1-.7-.15 2.98-2.65 6.51-4.6 10.4-5.88-4.42-1.85-8.8-2.76-12.98-2.69a72.292 72.292 0 0 0-14.5 4.8 39.233 39.233 0 0 0-5.68 4.19c-.2.06-.39.11-.59.17 1.56-1.39 3.23-2.64 4.98-3.76a73.852 73.852 0 0 0-8.47 4.75c-.43.28-.85.57-1.27.85 17.93-8.47 44.89-1.79 68.08 18.9-3.02-4.62-6.2-8.73-9.49-12.32-1.44.47-2.75 1.19-3.85 2.18Z" style="fill:none"/><path d="M88.74 4.98c-.82-.71-1.66-1.3-2.51-1.77a72.71 72.71 0 0 0-27.42.33c4.06 0 8.29.92 12.56 2.74 5.3-1.65 11.24-2.06 17.37-1.29ZM91.18 21.25c3.23 3.6 6.36 7.73 9.32 12.37-.75-4.81-1.72-9.09-2.89-12.85-2.27-.28-4.47-.13-6.43.48ZM69.39 65c3.04 2.71 6.29 5.07 9.67 7.06 5.06-8.73 9.98-17.43 14.43-25.49-1.33-.79-2.62-1.72-3.82-2.79-.87-.78-1.66-1.59-2.36-2.43-7.95 5.1-16.09 11.08-23.89 17.49a58.64 58.64 0 0 0 5.98 6.17Z" style="fill:none"/><path d="M97.42 20.18c-2.22-6.89-5.1-11.92-8.4-14.95-6.04-.76-11.89-.35-17.11 1.27 6.31 2.81 12.71 7.57 18.75 14.18 2.06-.64 4.37-.8 6.76-.5ZM33.6 109.8c2.26 2.02 4.61 3.91 7 5.68 1.28-1.18 2.78-2.5 4.51-4.18.13-.13.26-.26.38-.39 1.51-.07 3.1-.11 4.8-.11 1.85 0 3.7.04 5.51.12 2.31-3.71 4.73-7.65 7.2-11.73a88.67 88.67 0 0 1-13.99-10.22 85.125 85.125 0 0 1-8.65-8.92c-6.54 6.8-12.19 13.54-16.45 19.77 2.88 3.46 6.11 6.8 9.69 9.99ZM136.91 96.39c5.06-5.47 8.1-12.12 9.21-19.35-1.05-6.63-4.19-13.22-9.15-19.36-.79 5.11-2.93 9.8-6.5 13.66 3.84 8.48 6.06 17.03 6.44 25.06ZM25.72 32.7c-7.57 3.46-13.84 8.2-18.2 14.11-1.69 8.01-1.2 16.76 1.37 25.58 4.35-6.07 10.58-11.77 18.06-16.84-2.3-7.88-2.74-15.69-1.23-22.84ZM4.63 51.06c.55-1.1 1.17-2.19 1.87-3.25.26-.4.53-.79.8-1.18.45-1.97 1.03-3.89 1.75-5.76-1.73 3.29-3.21 6.7-4.42 10.19ZM84.22 28.47c5.46 1.28 10.92 3 16.28 5.16-4.39-3.83-8.9-7.18-13.47-10.03a9.372 9.372 0 0 0-2.81 4.87ZM95.3 144.99c-1.13.35-2.27.68-3.41.97.77-.15 1.53-.31 2.28-.5.38-.15.75-.31 1.12-.48ZM60.87 12.75c-3.88 3.58-6.36 8.03-7.48 12.95 9.58-.57 19.77.25 29.96 2.56.44-1.94 1.42-3.7 2.95-5.11-8.52-5.21-17.18-8.69-25.43-10.4Z" style="fill:none"/><path d="M30.54 113.7c-.31 3.69-.84 7.92-1.25 12.69-.05.61-.09 1.17-.12 1.72 1.52 1.21 3.08 2.35 4.66 3.45.35-2.56.69-5.49 1.28-8 .78-3.34 2.42-5.22 5.02-7.64-2.35-1.75-4.66-3.6-6.88-5.59a93.695 93.695 0 0 1-9.69-10c-.27.4-.53.8-.8 1.2-3.74 5.74-5.85 10.44-6.47 14.04 1.06 1.27 2.18 2.52 3.34 3.76 2.75-2.06 6.31-4.03 10.92-5.63ZM2.74 92.34a72.528 72.528 0 0 0 9.7 22.28 71.82 71.82 0 0 0 3.55 4.97c-.43-1.19-.53-2.64-.29-4.35-6.18-7.57-10.55-15.7-13.02-23.79.01.29.04.59.07.88ZM107.69 10.62a73.121 73.121 0 0 0-19.22-6.98c-.52-.11-1.05-.21-1.58-.31.81.46 1.61 1.03 2.38 1.72 6.14.83 12.44 2.85 18.46 5.98 0-.15-.02-.28-.03-.41ZM111.41 27.59c5.71-2.69 10.1-3.86 13.04-3.59a61.083 61.083 0 0 0-16.22-12.55c-.08 1.93-1.14 5.68-3.22 11.18 1.65.88 3.25 1.98 4.72 3.29.6.54 1.16 1.09 1.69 1.66ZM74.16 132.36c-2.37 3.21-5.19 6.85-8.63 9.35l-.7.52c-.83.62-1.91 1.42-3.23 2.3 1.94.51 3.88.96 5.81 1.32 3.47-1.91 7.16-5.68 10.9-11.42.26-.4.52-.8.77-1.21-1.59-.29-3.19-.65-4.79-1.04l-.14.19Z" style="fill:none"/><path d="M124.69 24.04c.39.05.76.13 1.09.23a72.176 72.176 0 0 0-17.57-13.37c0 .12.02.25.01.4a62.03 62.03 0 0 1 12.13 8.46c1.55 1.38 2.99 2.81 4.33 4.28ZM53.64 4.15c-.38.07-.76.15-1.14.24-.76.25-1.51.52-2.24.8a66.3 66.3 0 0 1 3.39-1.04ZM56.84 110.95c6.38.3 11.96.95 13.92 1.36.74.16 1.25.23 1.55.26l13.23-3.51c0 .44.02.87.04 1.29.17 3.11-1.68 1.18-2.79 7.72-.18 1.09-.39 2.15-.58 3.19l-2.51 3.5c-.15.21-3.66 5.1-5.01 6.88 1.58.39 3.15.74 4.73 1.03 3.93-6.43 7.48-14.42 10.52-23.28-8.8-1.62-17.77-4.91-26.22-9.79-2.36 3.95-4.67 7.76-6.89 11.36ZM107.72 11.19C101.8 8.11 95.58 6.12 89.53 5.3c3.21 3.02 5.99 8.03 8.09 14.9 2.39.33 4.84 1.11 7.18 2.33 1.97-5.56 2.93-9.36 2.92-11.34ZM58.88 146.2c1.77.36 3.55.66 5.35.89.94-.21 1.9-.56 2.88-1.07-1.92-.35-3.84-.8-5.77-1.31-.74.48-1.56.99-2.45 1.49ZM100.86 48.53c.13-5.15.01-10.16-.36-14.91a766.14 766.14 0 0 1-6.44 12.37c2.19 1.26 4.52 2.12 6.8 2.54ZM97.8 20.8c1.11 3.75 2.02 8.03 2.7 12.82 1.67-4.04 3.05-7.58 4.14-10.61-2.23-1.16-4.56-1.9-6.83-2.21ZM79.56 72.35c5.84 3.37 12.03 5.64 18.11 6.77 1.78-9.98 2.88-20.12 3.16-29.76-2.4-.44-4.84-1.34-7.15-2.67-4.33 8.13-9.16 16.88-14.12 25.66Z" style="fill:none"/><path d="M64.15 98.89c8.4 4.85 17.31 8.12 26.06 9.73 3.01-8.92 5.5-18.69 7.31-28.66-6.17-1.14-12.46-3.45-18.38-6.87-4.98 8.79-10.09 17.59-14.99 25.8ZM84.51 34.55c5.38-.67 10.74-.99 15.99-.93a110.83 110.83 0 0 0-16.31-5c-.39 1.86-.28 3.88.32 5.93Z" style="fill:none"/><path d="M2.67 91.46c2.47 8.08 6.84 16.22 13.02 23.79.02-.11.03-.22.05-.33-6.22-7.61-10.61-15.79-13.09-23.91 0 .15 0 .3.02.45ZM61.33 144.71c1.93.51 3.85.95 5.77 1.31.1-.05.21-.11.32-.17-1.93-.36-3.87-.81-5.81-1.32l-.27.18ZM19.62 119.33a83.223 83.223 0 0 1-3.34-3.76c-.02.11-.04.22-.05.33 1.01 1.21 2.09 2.41 3.19 3.59.07-.05.14-.11.21-.16ZM68.19 145.99c-.11.06-.21.11-.32.17 4.79.83 9.52 1.17 14.11 1.03.56-.07 1.11-.14 1.67-.22-5 .26-10.2-.07-15.46-.98ZM98.79 144.12l1.33-.5c-1.7.65-3.46 1.21-5.26 1.67-.15.06-.3.12-.46.17 1.49-.38 2.96-.83 4.38-1.35ZM91.9 145.96c-.49.13-.98.25-1.48.37 1.12-.2 2.22-.43 3.31-.69.15-.06.3-.11.45-.17-.75.18-1.52.35-2.28.5ZM2.05 89.27c.13.5.27 1 .41 1.49 0-.15-.02-.3-.02-.46-.26-.89-.49-1.77-.7-2.66.1.54.2 1.08.31 1.62ZM9.05 40.87c-.72 1.87-1.3 3.79-1.75 5.76.12-.17.24-.34.37-.51.5-2.21 1.18-4.36 2.02-6.43-.22.39-.43.79-.64 1.18ZM136.82 112.59l.69-1.19a38.931 38.931 0 0 1-4.35 6.2c-.27.38-.55.76-.83 1.14 1.71-1.94 3.21-3.99 4.49-6.16ZM74.3 132.17c1.6.39 3.19.75 4.79 1.04.11-.18.22-.36.34-.55-1.57-.29-3.15-.64-4.73-1.03l-.39.53ZM80.27 132.82c-.11.18-.22.37-.34.54 9.85 1.71 19.51 1.55 28.22-.57.11-.18.22-.36.32-.55-8.71 2.12-18.36 2.28-28.21.57ZM33.24 110.33c2.23 1.99 4.53 3.84 6.88 5.59.16-.15.31-.29.48-.44-2.4-1.78-4.74-3.66-7-5.68-3.57-3.19-6.8-6.53-9.69-9.99-.12.18-.24.36-.36.53 2.88 3.46 6.12 6.81 9.69 10ZM7.52 46.8c-.12.17-.25.34-.37.51-1.69 8.02-1.2 16.77 1.37 25.59.12-.17.24-.35.37-.52-2.57-8.82-3.06-17.56-1.37-25.58ZM8.75 73.65c2.69 8.83 7.47 17.7 14.22 25.97.12-.18.24-.35.36-.53-6.75-8.26-11.52-17.14-14.21-25.96-.12.17-.24.34-.37.52ZM14.65 30.83l-.81 1.11-.15.21c.1-.14.2-.27.3-.41.22-.31.43-.61.66-.91ZM109.22 132.07c-.11.18-.22.36-.32.55 7.36-1.9 14.03-5.22 19.55-10.02.3-.35.6-.7.89-1.05-.06.06-.13.12-.19.18-5.59 4.98-12.4 8.41-19.93 10.35ZM26.37 32.4l-.66.3c-1.51 7.16-1.07 14.97 1.23 22.84.21-.15.43-.29.65-.44-2.28-7.83-2.72-15.59-1.22-22.7ZM37.27 13.16l-.59.18c-5.62 5.18-9.2 11.63-10.83 18.75.22-.1.44-.2.66-.29 1.61-7.08 5.17-13.48 10.76-18.64ZM37.76 12.71c1.76-1.57 3.66-2.96 5.68-4.19-.43.19-.85.39-1.28.6a38.693 38.693 0 0 0-4.98 3.76c.2-.06.39-.12.59-.17ZM90.96 108.76c-.09.26-.17.51-.26.77 8.79 1.53 17.41 1.39 25.2-.51.04-.26.07-.51.1-.76-7.73 1.88-16.3 2.02-25.04.51ZM27.15 56.21c2.4 7.88 6.67 15.8 12.69 23.19.19-.19.38-.39.57-.58-5.99-7.34-10.22-15.21-12.61-23.04-.22.14-.43.29-.65.44ZM55.73 3.46l-.47.11c-.88.22-1.75.47-2.61.73.16-.04.32-.08.49-.12.85-.27 1.72-.51 2.59-.73ZM145.77 61.8c.17.92.31 1.84.43 2.75-.06-.41-.1-.82-.17-1.24l-.26-1.51ZM146.22 64.67c.12.92.21 1.84.27 2.76.05.52.1 1.04.14 1.56-.07-1.43-.22-2.87-.42-4.32Z" style="fill:#ececec"/><path d="M146.22 64.67s-.01-.09-.02-.13c0 .04.01.09.02.13ZM49.01 88.96A88.67 88.67 0 0 0 63 99.18c.14-.23.28-.47.43-.71a87.65 87.65 0 0 1-13.91-10.16 84.19 84.19 0 0 1-8.6-8.87c-.19.2-.38.39-.57.59 2.57 3.09 5.46 6.08 8.65 8.92ZM116.66 108.09c-.03.25-.06.51-.1.76 6.72-1.73 12.8-4.8 17.8-9.24.75-.67 1.46-1.35 2.14-2.06 0-.23-.02-.46-.03-.69-.67.7-1.38 1.39-2.13 2.05-4.96 4.42-11 7.46-17.69 9.19ZM52.5 4.39l-.5.12a44.2 44.2 0 0 0-3.22 1.19c.49-.18.98-.35 1.47-.51.74-.29 1.49-.55 2.24-.8ZM63.73 99.6c8.45 4.88 17.41 8.17 26.22 9.79.09-.25.17-.51.26-.77-8.75-1.61-17.66-4.88-26.06-9.73-.14.24-.28.47-.42.71ZM136.94 97.08c5.06-5.47 8.12-12.11 9.25-19.35v-.23c-.02-.16-.05-.31-.07-.47-1.11 7.24-4.15 13.89-9.21 19.35l.03.69ZM146.23 76.47v-.18c0 .04 0 .08-.01.12v.06ZM136.61 56.72c.14.17.29.34.43.52.71-5.13.05-10.67-1.9-16.19-.13-.09-.26-.19-.4-.28 1.92 5.45 2.57 10.9 1.87 15.95ZM61.21 12.44c2.94-2.61 6.42-4.54 10.25-5.79-.18-.08-.36-.16-.55-.23-3.89 1.27-7.42 3.22-10.4 5.88l.7.15ZM107.72 11.02c-6.01-3.13-12.32-5.14-18.46-5.98.09.08.18.17.27.25 6.05.82 12.26 2.8 18.19 5.89v-.17ZM130.47 71.33c3.57-3.86 5.72-8.55 6.5-13.66-.14-.18-.28-.35-.43-.52-.77 5.03-2.89 9.65-6.41 13.45l.33.72ZM116.06 78.74l.12.85c4.72-1.22 8.98-3.36 12.48-6.48.53-.47 1.02-.95 1.5-1.45-.11-.24-.22-.49-.33-.73-.47.49-.96.96-1.48 1.43-3.45 3.07-7.65 5.19-12.29 6.38ZM89.02 5.23c-.09-.09-.19-.17-.28-.25-6.13-.77-12.07-.35-17.37 1.29.18.08.36.16.54.23 5.22-1.62 11.08-2.03 17.11-1.27ZM134.97 40.57c-2.02-5.53-5.34-11.03-9.89-16.1-.08-.01-.17-.03-.25-.03 4.48 4.99 7.75 10.42 9.74 15.86.13.09.27.18.4.27ZM53.3 26.12l-.82.06c-1.06 5.02-.75 10.5.86 16.02l.81-.3c-1.59-5.44-1.89-10.84-.85-15.78ZM68.81 65.64c3.09 2.75 6.39 5.14 9.82 7.16.14-.25.29-.5.43-.75a60.623 60.623 0 0 1-9.67-7.06c-2.2-1.97-4.2-4.03-5.98-6.17-.22.18-.44.37-.67.55 1.8 2.17 3.83 4.26 6.06 6.26ZM53.48 42.67c1.69 5.52 4.67 11.08 8.9 16.26.23-.18.45-.36.67-.54-4.16-5.1-7.11-10.58-8.77-16.02-.27.1-.54.2-.8.3ZM124.45 24.01c.08 0 .17.02.24.03-1.34-1.47-2.78-2.9-4.33-4.28-3.78-3.37-7.87-6.2-12.13-8.46v.16a61.083 61.083 0 0 1 16.22 12.55ZM79.14 73.1c5.93 3.42 12.21 5.73 18.38 6.87l.15-.85C91.59 78 85.4 75.73 79.56 72.35l-.42.75ZM60.87 12.75c-.24-.05-.47-.1-.7-.14-3.94 3.63-6.45 8.16-7.59 13.15.27-.02.54-.04.82-.05 1.12-4.92 3.6-9.37 7.48-12.95ZM98.19 79.2c-.05.28-.1.57-.14.85 6.17 1.07 12.21.97 17.67-.36l-.12-.85c-5.38 1.31-11.33 1.41-17.41.35ZM104.8 22.53c-2.34-1.22-4.79-2-7.18-2.33.06.2.12.4.18.59 2.27.31 4.6 1.05 6.83 2.21.06-.16.11-.32.17-.48ZM87.16 23.48c1.1-.98 2.41-1.7 3.85-2.18-.18-.19-.35-.38-.52-.57-1.51.5-2.89 1.25-4.05 2.29.24.15.48.3.72.46ZM86.3 23.15a9.825 9.825 0 0 0-2.95 5.11c.29.07.58.13.87.2a9.372 9.372 0 0 1 2.81-4.87c-.24-.15-.48-.3-.73-.45ZM84.19 28.62c-.29-.07-.58-.13-.87-.19-.41 1.95-.29 4.08.33 6.23.29-.04.57-.07.85-.11-.6-2.05-.71-4.07-.32-5.93ZM101.05 48.56c0 .27 0 .55-.01.82 2.4.42 4.75.38 6.87-.14-.11-.27-.22-.54-.32-.82-2.02.49-4.26.53-6.54.13ZM115.49 40.12l.72.39c.28-2 .02-4.15-.74-6.3l-.69-.09c.72 2.05.96 4.09.7 5.99ZM107.77 48.39l.33.81c1.83-.47 3.49-1.31 4.85-2.52.21-.18.4-.37.58-.56-.2-.22-.4-.44-.59-.67-.18.19-.36.36-.56.54-1.3 1.15-2.87 1.95-4.62 2.4ZM115.41 34.03c-.79-2.15-2.08-4.29-3.85-6.26-.16.07-.33.15-.5.22 1.68 1.88 2.91 3.91 3.66 5.96.23.03.46.05.68.08ZM97.61 20.77c-.06-.2-.13-.4-.19-.59-2.38-.3-4.7-.14-6.76.5.17.19.34.38.52.57 1.96-.61 4.16-.76 6.43-.48ZM113.66 45.99c1.39-1.5 2.23-3.33 2.53-5.31-.24-.14-.48-.27-.72-.4-.29 1.89-1.08 3.63-2.41 5.05l.6.66ZM110.92 27.83c.17-.08.33-.16.49-.23-.52-.57-1.08-1.13-1.69-1.66a23.997 23.997 0 0 0-4.72-3.29l-.18.48c1.57.84 3.09 1.88 4.49 3.13.57.51 1.11 1.04 1.6 1.58ZM93.68 46.68c2.31 1.33 4.75 2.23 7.15 2.67 0-.28.02-.55.02-.82-2.29-.42-4.61-1.28-6.8-2.54-.13.23-.25.46-.37.69ZM89.67 43.78c1.2 1.07 2.49 2 3.82 2.79.13-.23.25-.46.38-.69-1.27-.75-2.49-1.63-3.63-2.65a21.31 21.31 0 0 1-2.25-2.32c-.22.14-.45.29-.68.43.7.84 1.49 1.66 2.36 2.43ZM83.71 34.84c.65 2.15 1.82 4.31 3.46 6.33.23-.14.46-.28.68-.43-1.56-1.91-2.67-3.97-3.29-6.02l-.85.12Z" style="fill:#ececec"/><path d="M146.64 68.99a73.249 73.249 0 0 0-4.15-19.14c.11.28.22.56.32.84l-.15-.43-.14-.39c-.1-.29-.22-.57-.34-.85a73.926 73.926 0 0 0-7.21-14.21c-7.05-10.82-16.47-19.17-27.14-24.8l-.62-.33s.01 0 .02.01a73.788 73.788 0 0 0-22.9-7.41c-.4-.11-.81-.2-1.22-.25l-.76-.1c.41.05.81.14 1.22.24a73.298 73.298 0 0 0-28.99 1.75c-.48.08-.95.17-1.43.28l-.49.12c-.4.1-.81.22-1.21.34l-.96.31c.5-.17 1.01-.31 1.52-.45l.5-.12c.38-.09.76-.17 1.14-.24a73.077 73.077 0 0 0-4.86 1.55c-5.32 1.9-10.5 4.44-15.44 7.66-2.08 1.35-4.06 2.8-5.96 4.32-.91.65-1.78 1.34-2.62 2.09l-.95.86c.81-.75 1.66-1.45 2.54-2.11-4.74 3.95-8.87 8.4-12.37 13.22-.1.14-.2.27-.3.41-17.06 23.87-18.77 56.72-1.78 82.8 1.54 2.36 3.2 4.6 4.95 6.72.15-.15.3-.29.46-.44-.28-.34-.57-.66-.84-1.01-.42-1.18-.51-2.62-.26-4.33.02-.11.04-.22.05-.33.62-3.6 2.74-8.3 6.47-14.04.26-.4.53-.8.8-1.2.12-.18.24-.36.36-.53 4.26-6.23 9.92-12.97 16.45-19.77.19-.2.38-.39.57-.59 6.59-6.8 14.03-13.64 21.82-20.07.22-.18.44-.37.67-.55 7.81-6.41 15.95-12.39 23.89-17.49.23-.15.45-.29.68-.43 4.26-2.71 8.45-5.16 12.51-7.29-4.1 2.07-8.34 4.47-12.65 7.12-.23.14-.46.28-.68.43-8.03 5-16.24 10.89-24.11 17.22-.23.18-.45.36-.67.54-7.85 6.35-15.35 13.13-21.98 19.88-.19.19-.38.39-.57.58-6.57 6.75-12.25 13.47-16.51 19.69-.12.18-.24.36-.36.53-.27.4-.54.8-.8 1.2-3.74 5.74-5.83 10.46-6.43 14.09-.02.11-.04.22-.05.33-.24 1.7-.14 3.15.29 4.35-1.24-1.6-2.42-3.25-3.55-4.97a72.979 72.979 0 0 1-9.7-22.28c-.03-.29-.06-.58-.07-.88 0-.15-.01-.3-.02-.45-.14-4.96 1.56-10.43 5.29-16.16.26-.4.52-.79.8-1.19.12-.17.24-.35.37-.52 4.35-6.07 10.57-11.81 18.03-16.92.21-.15.43-.3.65-.44 7.54-5.08 16.31-9.54 25.69-13.1.27-.1.54-.2.8-.3 9.42-3.51 19.43-6.11 29.42-7.53l.85-.12c5.36-.72 10.7-1.11 15.94-1.1-5.26-.06-10.62.26-15.99.93-.28.03-.57.07-.85.11-10.02 1.31-20.06 3.82-29.5 7.25l-.81.3c-9.41 3.48-18.2 7.87-25.75 12.9l-.65.44c-7.48 5.07-13.71 10.77-18.06 16.84l-.37.52c-.27.39-.54.79-.8 1.19-3.73 5.73-5.42 11.22-5.27 16.22 0 .15 0 .3.02.46 0 .22.03.43.05.65-.17-.71-.32-1.43-.47-2.14-.11-.54-.21-1.08-.31-1.62a72.844 72.844 0 0 1 .46-27.81c.54-2.58 1.23-5.12 2.05-7.63.61-1.26 1.3-2.5 2.1-3.72.26-.4.53-.79.8-1.18.12-.17.24-.34.37-.51 4.36-5.91 10.64-10.65 18.2-14.11l.66-.3c7.64-3.39 16.55-5.49 26.11-6.22l.82-.06c9.59-.65 19.81.09 30.01 2.3.29.06.58.13.87.19 5.48 1.23 10.94 2.9 16.31 5-5.35-2.16-10.81-3.87-16.28-5.16-.29-.07-.58-.14-.87-.2-10.19-2.31-20.39-3.13-29.96-2.56-.27.02-.54.03-.82.05-9.54.65-18.44 2.7-26.07 6.04-.22.1-.44.19-.66.29-7.56 3.41-13.83 8.13-18.19 14.04-.12.17-.25.34-.37.51-.28.39-.54.78-.8 1.18-.7 1.07-1.31 2.15-1.87 3.25 1.21-3.49 2.68-6.9 4.42-10.19.21-.4.42-.79.64-1.18a72.411 72.411 0 0 1 21.74-24.27c1.67-.83 3.43-1.52 5.25-2.08.19-.06.39-.12.59-.18 6.85-1.99 14.67-2.16 22.9-.55.23.05.47.09.7.14 8.26 1.71 16.92 5.19 25.43 10.4.24.15.49.3.73.45 4.57 2.85 9.08 6.19 13.47 10.03C77.3 12.94 50.35 6.25 32.42 14.73c.42-.29.84-.57 1.27-.85 2.75-1.79 5.58-3.37 8.47-4.75.43-.2.85-.4 1.28-.6 4.72-2.14 9.58-3.73 14.5-4.8 4.18-.07 8.56.84 12.98 2.69.18.08.36.15.55.23 6.39 2.78 12.88 7.51 19.03 14.09.17.19.35.38.52.57 3.29 3.58 6.47 7.69 9.49 12.32-2.96-4.64-6.09-8.77-9.32-12.37-.17-.19-.34-.38-.52-.57-6.05-6.6-12.44-11.37-18.75-14.18-.18-.08-.36-.16-.54-.23-4.27-1.82-8.5-2.75-12.56-2.74a73.124 73.124 0 0 1 27.42-.33c.86.47 1.7 1.06 2.51 1.77l.28.25c3.3 3.03 6.18 8.06 8.4 14.95.06.2.12.39.19.59 1.17 3.75 2.14 8.04 2.89 12.85-.68-4.8-1.59-9.08-2.7-12.82l-.18-.59c-2.1-6.88-4.88-11.89-8.09-14.9a13.358 13.358 0 0 0-2.65-1.97c.53.1 1.05.2 1.58.31a72.993 72.993 0 0 1 19.22 6.98c.02.12.03.26.03.41v.17c.01 1.98-.95 5.78-2.92 11.34-.06.16-.11.32-.17.48-1.09 3.03-2.46 6.58-4.14 10.61 1.74-4 3.18-7.51 4.33-10.51l.18-.48c2.08-5.5 3.14-9.25 3.22-11.18v-.16c0-.15 0-.27-.01-.4a72.367 72.367 0 0 1 17.57 13.37c-.34-.1-.7-.18-1.09-.23l-.24-.03c-2.94-.27-7.33.9-13.04 3.59-.16.08-.33.15-.49.23-3.1 1.49-6.58 3.42-10.42 5.8 3.89-2.32 7.41-4.2 10.56-5.64.17-.08.33-.15.5-.22 5.8-2.6 10.27-3.68 13.27-3.33.09 0 .17.02.25.03.42.06.8.15 1.16.27 2.99 3.15 5.73 6.62 8.19 10.39 2.13 3.26 3.95 6.64 5.5 10.08-1.32-1.71-2.97-3.27-4.96-4.64-.13-.09-.26-.18-.4-.27-4.72-3.14-11.19-5.32-19.16-6.27-.23-.03-.46-.05-.68-.08-4.32-.47-9.08-.59-14.22-.32 5.17-.21 9.94-.03 14.29.5l.69.09c8.01 1.06 14.52 3.33 19.27 6.55.14.09.27.19.4.28 2.06 1.45 3.76 3.08 5.1 4.88a72.48 72.48 0 0 1 5.99 30.36v.18-.06c-1.06-6.58-4.21-13.11-9.18-19.17l-.43-.52c-5.08-6.03-11.97-11.58-20.4-16.21l-.72-.39c-4.57-2.46-9.58-4.64-14.99-6.49 5.4 1.91 10.4 4.15 14.96 6.66.25.13.48.27.72.4 8.42 4.72 15.29 10.36 20.36 16.47l.43.52c4.96 6.14 8.1 12.73 9.15 19.36.02.16.05.31.07.47v.23c-.16 4.1-.67 8.17-1.52 12.17a72.99 72.99 0 0 1-11.23 26.23c2.61-5.71 3.73-12.18 3.5-19.05 0-.23-.02-.46-.03-.69-.38-8.03-2.59-16.57-6.44-25.06l-.33-.72c-3.94-8.48-9.5-16.88-16.48-24.61l-.6-.66c-3.79-4.13-7.99-8.06-12.56-11.71 4.53 3.69 8.69 7.66 12.45 11.83.2.22.39.44.59.67 6.92 7.81 12.42 16.27 16.3 24.81.11.24.22.49.33.73 3.79 8.54 5.96 17.13 6.31 25.19l.03.69c.22 7.12-1.01 13.81-3.81 19.66a77.186 77.186 0 0 1-3.35 4.34c-.29.35-.59.7-.89 1.05-4.34 5-9.44 9.49-15.27 13.28a73.076 73.076 0 0 1-13.69 6.99c3.18-2.13 6.1-5.14 8.65-9.04.26-.4.51-.8.76-1.21.11-.18.22-.36.32-.55 3.75-6.43 6.18-14.39 7.34-23.22.03-.25.07-.51.1-.76 1.09-8.88.92-18.6-.47-28.5l-.12-.85c-1.46-9.91-4.13-19.98-7.96-29.53l-.33-.81c-2.09-5.11-4.52-10.07-7.27-14.77a118.6 118.6 0 0 1 7.1 14.81c.11.27.21.54.32.82 3.73 9.58 6.31 19.67 7.69 29.6l.12.85c1.31 9.92 1.42 19.66.28 28.55-.03.26-.06.51-.1.76-1.21 8.84-3.67 16.81-7.42 23.24-.11.18-.22.36-.32.55-.25.41-.5.82-.76 1.21-2.64 4.05-5.66 7.12-8.96 9.26-4.84 1.77-9.79 3-14.78 3.7-.56.08-1.11.15-1.67.22-5.65.66-11.33.66-16.92.01.92-.21 1.85-.55 2.81-1.04.11-.06.21-.11.32-.17 3.52-1.9 7.23-5.67 10.97-11.41.26-.4.52-.8.77-1.21.11-.18.22-.36.34-.54 3.92-6.43 7.45-14.42 10.43-23.3.09-.25.17-.51.26-.77 2.95-8.93 5.37-18.72 7.09-28.7.05-.28.09-.57.14-.85 1.69-9.99 2.68-20.16 2.85-29.82 0-.27 0-.55.01-.82.06-5.17-.12-10.18-.56-14.94.37 4.75.49 9.75.36 14.91 0 .27-.01.55-.02.82-.28 9.64-1.38 19.78-3.16 29.76-.05.29-.1.57-.15.85-1.82 9.97-4.3 19.74-7.31 28.66-.09.26-.17.51-.26.77-3.04 8.87-6.6 16.85-10.52 23.28-.11.18-.22.36-.34.55-.26.41-.51.82-.77 1.21-3.74 5.74-7.43 9.51-10.9 11.42-.1.06-.21.12-.32.17-.98.51-1.94.86-2.88 1.07-1.79-.23-3.57-.53-5.35-.89-.27.15-.54.3-.82.45 1 .21 2 .42 3.01.59-.11-.01-.22-.02-.32-.04l.75.13c.14.02.27.03.41.05a73.38 73.38 0 0 0 28.52-1.06c.49-.12.98-.24 1.48-.37 1.14-.3 2.28-.62 3.41-.97-.37.17-.74.33-1.12.48-.15.06-.3.12-.45.17-.75.27-1.5.5-2.27.69l.96-.24c.67-.17 1.33-.38 1.99-.62.15-.05.3-.11.46-.17.5-.19 1-.41 1.49-.64a73.715 73.715 0 0 0 17.16-8.25 73.52 73.52 0 0 0 17.04-15.36c-.03.04-.05.08-.08.12a33.294 33.294 0 0 1-3.8 4.8l.88-.93c1.24-1.34 2.38-2.81 3.41-4.39.12-.18.23-.37.34-.55.35-.45.69-.89 1.02-1.34.28-.38.56-.76.83-1.14 7.56-10.57 12.1-22.9 13.35-35.62 0 1.5-.12 3-.35 4.49l.16-1.1c.2-1.45.29-2.91.28-4.38.34-3.98.35-8 .03-12.01Z" style="fill:#ececec"/><path d="M93.49 46.57c-4.44 8.06-9.37 16.76-14.43 25.49-.14.25-.29.5-.43.75a1555.62 1555.62 0 0 1-15.2 25.67c-.14.24-.29.47-.43.71-2.48 4.09-4.89 8.02-7.2 11.73.35.01.69.03 1.04.04 2.22-3.6 4.53-7.41 6.89-11.36.14-.23.28-.47.42-.71 4.9-8.21 10.01-17.01 14.99-25.8l.42-.75c4.97-8.78 9.79-17.54 14.12-25.66.12-.23.25-.46.37-.69 2.31-4.34 4.48-8.49 6.44-12.37a856.88 856.88 0 0 1-6.63 12.26c-.13.23-.25.46-.38.69Z" style="fill:#ececec"/><path d="M45.63 131.27c-5.52 3.59-27.57 3.66-27.57 3.66s6.22 8.82 18.81 9.06c13.44.25 20.94-6.2 24.12-8.51 3.18-2.31 6.26-6.78 7.56-8.5 1.3-1.72 4.88-6.71 4.88-6.71s-1.05.28-4.26-.39c-3.2-.67-21.67-2.49-31.06-.33-18.36 4.23-20.05 14.25-20.05 14.25s17.83-1.19 28.41-3.79c.18-.05 2.41-.82 2.39-.69-.03.24-3.04 1.84-3.24 1.96Z" style="fill:url(#c)"/><path d="M116.54 45.35c10.69 26.77-8.41 54.6-34.42 64.98-26 10.38-49.06-.62-59.75-27.39C11.68 56.17 24.1 26.05 50.1 15.67c26-10.38 55.75 2.91 66.43 29.68Z" style="fill:url(#d);opacity:.5"/><path d="M215.84 67.1c-.48-.48-.72-1.03-.72-1.67V3.34c0-.7.24-1.27.72-1.72.48-.44 1.03-.67 1.67-.67h25.98c8.34 0 14.85 1.9 19.53 5.68 4.68 3.79 7.02 9.16 7.02 16.09 0 4.46-1.05 8.25-3.15 11.37-2.1 3.12-5 5.51-8.69 7.16l13.09 23.5c.19.38.29.73.29 1.05 0 .51-.21.97-.62 1.38-.41.41-.88.62-1.38.62h-12.7c-1.85 0-3.15-.86-3.92-2.58l-10.89-21.01h-9.74v21.2c0 .7-.24 1.27-.72 1.72s-1.07.67-1.77.67h-12.32c-.64 0-1.19-.24-1.67-.72Zm27.46-36.44c2.93 0 5.16-.72 6.69-2.15 1.53-1.43 2.29-3.42 2.29-5.97s-.75-4.57-2.25-6.06c-1.5-1.5-3.74-2.24-6.73-2.24h-10.98v16.42h10.98Z" style="fill:url(#e)"/><path d="M277.06 67.1c-.48-.48-.72-1.03-.72-1.67V3.34c0-.7.24-1.27.72-1.72.48-.44 1.03-.67 1.67-.67h29.13c8.02 0 13.99 1.64 17.91 4.92 3.92 3.28 5.87 7.94 5.87 13.99 0 3.18-.81 5.87-2.44 8.07-1.62 2.2-3.45 3.81-5.49 4.82 2.61 1.21 4.81 3.15 6.59 5.83 1.78 2.67 2.67 5.67 2.67 8.98 0 6.37-2.1 11.34-6.3 14.9-4.2 3.57-10.19 5.35-17.96 5.35h-29.99c-.64 0-1.19-.24-1.67-.72Zm28.89-39.59c2.55 0 4.49-.65 5.83-1.96 1.34-1.3 2.01-3.04 2.01-5.2s-.67-3.79-2.01-5.06c-1.34-1.27-3.28-1.91-5.83-1.91h-12.42v14.14h12.42Zm.86 27.89c2.61 0 4.65-.76 6.11-2.29s2.2-3.37 2.2-5.54c0-2.29-.73-4.19-2.2-5.68-1.46-1.5-3.5-2.24-6.11-2.24h-13.28v15.76h13.28Z" style="fill:url(#f)"/><path d="M348.17 66.09c-4.33-1.78-7.59-4.12-9.79-7.02-2.2-2.9-3.36-6.06-3.49-9.5 0-.51.21-.97.62-1.38.41-.41.91-.62 1.48-.62h12.04c.76 0 1.38.14 1.86.43.48.29.97.72 1.48 1.29.83 1.66 2.16 3.02 4.01 4.11 1.85 1.08 4.3 1.62 7.36 1.62 3.63 0 6.4-.57 8.31-1.72 1.91-1.15 2.87-2.71 2.87-4.68 0-1.4-.49-2.54-1.48-3.44-.99-.89-2.53-1.69-4.63-2.39-2.1-.7-5.22-1.5-9.36-2.39-7.64-1.59-13.36-3.93-17.14-7.02-3.79-3.09-5.68-7.5-5.68-13.23 0-3.88 1.08-7.35 3.25-10.41 2.16-3.06 5.25-5.44 9.27-7.16C353.16.86 357.84 0 363.19 0s10.35.96 14.42 2.87c4.07 1.91 7.18 4.31 9.31 7.21 2.13 2.9 3.26 5.75 3.39 8.55 0 .57-.19 1.05-.57 1.43-.38.38-.86.57-1.43.57H375.7c-.76 0-1.39-.13-1.86-.38s-.91-.67-1.29-1.24c-.38-1.46-1.42-2.71-3.1-3.73-1.69-1.02-3.77-1.53-6.26-1.53-2.87 0-5.06.51-6.59 1.53-1.53 1.02-2.29 2.52-2.29 4.49 0 1.34.43 2.45 1.29 3.34.86.89 2.26 1.7 4.2 2.43 1.94.73 4.73 1.48 8.36 2.25 5.92 1.08 10.65 2.43 14.18 4.06 3.53 1.62 6.13 3.72 7.78 6.3 1.66 2.58 2.48 5.81 2.48 9.69 0 4.27-1.23 7.97-3.68 11.13-2.45 3.15-5.86 5.57-10.22 7.26-4.36 1.69-9.35 2.53-14.95 2.53-6.05 0-11.24-.89-15.57-2.67Z" style="fill:url(#g)"/><path d="M215.65 67.1c-.48-.48-.72-1.03-.72-1.67V3.34c0-.7.24-1.27.72-1.72.48-.44 1.03-.67 1.67-.67h25.98c8.34 0 14.85 1.9 19.53 5.68 4.68 3.79 7.02 9.16 7.02 16.09 0 4.46-1.05 8.25-3.15 11.37-2.1 3.12-5 5.51-8.69 7.16l13.09 23.5c.19.38.29.73.29 1.05 0 .51-.21.97-.62 1.38-.41.41-.88.62-1.38.62h-12.7c-1.85 0-3.15-.86-3.92-2.58l-10.89-21.01h-9.74v21.2c0 .7-.24 1.27-.72 1.72s-1.07.67-1.77.67h-12.32c-.64 0-1.19-.24-1.67-.72Zm27.46-36.44c2.93 0 5.16-.72 6.69-2.15 1.53-1.43 2.29-3.42 2.29-5.97s-.75-4.57-2.25-6.06c-1.5-1.5-3.74-2.24-6.73-2.24h-10.98v16.42h10.98Z" style="fill:url(#h)"/><path d="M276.87 67.1c-.48-.48-.72-1.03-.72-1.67V3.34c0-.7.24-1.27.72-1.72.48-.44 1.03-.67 1.67-.67h29.13c8.02 0 13.99 1.64 17.91 4.92 3.92 3.28 5.87 7.94 5.87 13.99 0 3.18-.81 5.87-2.44 8.07-1.62 2.2-3.45 3.81-5.49 4.82 2.61 1.21 4.81 3.15 6.59 5.83 1.78 2.67 2.67 5.67 2.67 8.98 0 6.37-2.1 11.34-6.3 14.9-4.2 3.57-10.19 5.35-17.96 5.35h-29.99c-.64 0-1.19-.24-1.67-.72Zm28.89-39.59c2.55 0 4.49-.65 5.83-1.96 1.34-1.3 2.01-3.04 2.01-5.2s-.67-3.79-2.01-5.06c-1.34-1.27-3.28-1.91-5.83-1.91h-12.42v14.14h12.42Zm.86 27.89c2.61 0 4.65-.76 6.11-2.29s2.2-3.37 2.2-5.54c0-2.29-.73-4.19-2.2-5.68-1.46-1.5-3.5-2.24-6.11-2.24h-13.28v15.76h13.28Z" style="fill:url(#i)"/><path d="M347.98 66.09c-4.33-1.78-7.59-4.12-9.79-7.02-2.2-2.9-3.36-6.06-3.49-9.5 0-.51.21-.97.62-1.38.41-.41.91-.62 1.48-.62h12.04c.76 0 1.38.14 1.86.43.48.29.97.72 1.48 1.29.83 1.66 2.16 3.02 4.01 4.11 1.85 1.08 4.3 1.62 7.36 1.62 3.63 0 6.4-.57 8.31-1.72 1.91-1.15 2.87-2.71 2.87-4.68 0-1.4-.49-2.54-1.48-3.44-.99-.89-2.53-1.69-4.63-2.39-2.1-.7-5.22-1.5-9.36-2.39-7.64-1.59-13.36-3.93-17.14-7.02-3.79-3.09-5.68-7.5-5.68-13.23 0-3.88 1.08-7.35 3.25-10.41 2.16-3.06 5.25-5.44 9.27-7.16C352.97.86 357.65 0 363 0s10.35.96 14.42 2.87c4.07 1.91 7.18 4.31 9.31 7.21 2.13 2.9 3.26 5.75 3.39 8.55 0 .57-.19 1.05-.57 1.43-.38.38-.86.57-1.43.57h-12.61c-.76 0-1.39-.13-1.86-.38s-.91-.67-1.29-1.24c-.38-1.46-1.42-2.71-3.1-3.73-1.69-1.02-3.77-1.53-6.26-1.53-2.87 0-5.06.51-6.59 1.53-1.53 1.02-2.29 2.52-2.29 4.49 0 1.34.43 2.45 1.29 3.34s2.26 1.7 4.2 2.43c1.94.73 4.73 1.48 8.36 2.25 5.92 1.08 10.65 2.43 14.18 4.06 3.53 1.62 6.13 3.72 7.78 6.3 1.66 2.58 2.48 5.81 2.48 9.69 0 4.27-1.23 7.97-3.68 11.13-2.45 3.15-5.86 5.57-10.22 7.26-4.36 1.69-9.35 2.53-14.95 2.53-6.05 0-11.24-.89-15.57-2.67Z" style="fill:url(#j)"/><path d="M359.8 37.83c4.28.92 7.43 1.73 9.64 2.46 2.47.82 4.29 1.78 5.57 2.93 1.53 1.39 2.34 3.25 2.34 5.39s-.72 4.88-4.14 6.94c-2.35 1.41-5.51 2.09-9.66 2.09-3.52 0-6.44-.67-8.68-1.98-2.16-1.26-3.79-2.89-4.85-4.85-.32-.34-.55-.49-.65-.56 0 0-.14-.06-.52-.06h-11.46c.23 2.63 1.19 5.02 2.91 7.29 1.9 2.51 4.82 4.58 8.69 6.18 3.99 1.64 8.89 2.48 14.57 2.48 5.24 0 9.95-.79 14-2.36 3.89-1.5 6.95-3.66 9.09-6.42 2.1-2.71 3.13-5.82 3.13-9.51 0-3.35-.7-6.14-2.07-8.27-1.38-2.14-3.62-3.94-6.67-5.34-1.15-.53-2.46-1.03-3.91-1.5-5.57 1.85-11.47 3.52-17.66 5.01.12.03.23.05.35.08Z" style="fill:url(#k)"/><g style="opacity:.5"><path d="M256.93 38.86c3.27-1.47 5.75-3.51 7.59-6.23 1.8-2.66 2.7-5.99 2.7-9.9 0-6.16-1.98-10.76-6.05-14.05-4.18-3.38-10.2-5.1-17.88-5.1l-25.74-.04v34.59c5.62 1.32 11.48 2.47 17.53 3.47h8.38l.71 1.36c4.1.55 8.29 1.01 12.55 1.4l-2.4-4.32 2.62-1.17Zm-13.82-5.57H229.5V11.6h13.61c3.7 0 6.59 1.01 8.59 3.01 2 2 3.01 4.67 3.01 7.92s-1.05 5.94-3.12 7.89c-2.02 1.9-4.88 2.86-8.48 2.86Z" style="fill:url(#b);opacity:.5"/><path d="m322.42 35.15-4.95-2.3 4.88-2.44c1.65-.83 3.18-2.18 4.55-4.04 1.29-1.74 1.92-3.87 1.92-6.51 0-5.28-1.61-9.2-4.93-11.98-3.41-2.86-8.87-4.31-16.22-4.31l-28.89-.04v42.11c2.96.08 5.94.13 8.95.13 1 0 1.99-.02 2.98-.03v-8.73h15.9c3.33 0 6.02 1.02 7.99 3.03 1.25 1.27 2.05 2.78 2.51 4.47 4.18-.36 8.29-.81 12.33-1.32-.37-1.09-.86-2.14-1.52-3.14-1.52-2.28-3.33-3.88-5.51-4.9Zm-9-7.72c-1.84 1.8-4.42 2.71-7.66 2.71h-15.05v-19.4h15.05c3.23 0 5.8.89 7.64 2.63 1.87 1.78 2.82 4.13 2.82 6.97s-.94 5.28-2.8 7.09Z" style="fill:url(#l);opacity:.5"/><path d="M358.66 28.01c-2.33-.88-4.03-1.88-5.17-3.07-1.33-1.37-2.03-3.16-2.03-5.17 0-2.86 1.2-5.17 3.46-6.68 1.99-1.32 4.62-1.97 8.05-1.97 2.96 0 5.52.64 7.62 1.91 2.09 1.26 3.47 2.87 4.12 4.77.09.1.14.13.14.13s.17.07.63.07h11.92c-.26-2.04-1.21-4.18-2.82-6.36-1.86-2.53-4.66-4.68-8.31-6.39-3.7-1.74-8.18-2.62-13.31-2.62s-9.34.8-13 2.37c-3.54 1.52-6.28 3.63-8.15 6.27-1.86 2.63-2.76 5.53-2.76 8.89 0 4.94 1.54 8.61 4.72 11.19 3.38 2.76 8.66 4.91 15.69 6.41 6.19-1.49 12.09-3.17 17.66-5.01-2.73-.89-5.96-1.69-9.72-2.37-3.8-.8-6.66-1.57-8.74-2.36Z" style="fill:url(#m);opacity:.5"/></g></svg>