<?xml version="1.0" encoding="UTF-8"?><svg id="Layer_2" xmlns="http://www.w3.org/2000/svg" xmlns:xlink="http://www.w3.org/1999/xlink" viewBox="0 0 157.12 138.76"><defs><linearGradient id="linear-gradient" x1="153.3" y1="111.12" x2="20.47" y2="127.01" gradientUnits="userSpaceOnUse"><stop offset="0" stop-color="#136184"/><stop offset=".32" stop-color="#1e9cd7"/><stop offset=".53" stop-color="#00858b"/><stop offset=".99" stop-color="#00d343"/></linearGradient><linearGradient id="linear-gradient-2" x1="151.79" y1="99.08" x2="17.6" y2="115.14" xlink:href="#linear-gradient"/><radialGradient id="radial-gradient" cx="-2642.52" cy="-1146.53" fx="-2642.52" fy="-1146.53" r="43.09" gradientTransform="translate(-2689.97 -333.12) rotate(158.24) scale(.91 1.17)" gradientUnits="userSpaceOnUse"><stop offset=".25" stop-color="#fff"/><stop offset=".99" stop-color="#fff" stop-opacity="0"/></radialGradient></defs><g id="Layer_1-2"><g><path d="M119.76,105.5l6.22,6.33s-51.46,47.18-111.44,6.59c47.64,42.3,125.01,5.52,125.01,5.52l6.17,7.2,11.39-39.58-37.35,13.94Z" style="fill:url(#linear-gradient);"/><path d="M9.74,93.82l.38,1c.02,.06,.05,.13,.08,.19-.05-.12-.09-.25-.14-.37-.11-.27-.21-.54-.32-.82Z" style="fill:#b1b1b1;"/><g><path d="M66,32.98c4.61-5.36,6.94-2.62,14.41-5.67,7.47-3.05,6.36-6.07,9.58-13.68,1.19-2.82,2.32-4.87,3.26-6.35-2.28-1.18-4.65-2.24-7.11-3.16C53.23-8.16,16.62,8.48,4.21,41.29c2.42,3.01,4.63,6.3,4.79,8.4,.35,4.72,4.65,5.83,10.17,11.99,5.52,6.16,2.98,5.33,1.24,9.65-1.74,4.32,2.14,10.23,4.85,14.6,1.66,2.67,1.71,6.57,1.28,11.63,1.56-.54,3.24-1.03,5.08-1.46,2.15-.5,4.81-.82,7.91-.96,4.63-4.63,6.49-8.97,7.39-11.05,.92-2.14-5.71-5.98-10.56-13.62-4.84-7.64-7.2-7-9.73-7.78-2.52-.78-2.33-2.19-3.16-3.5-.84-1.31,3.99,.83,5.78,.92,1.79,.09-1.34-3.07-6.48-6.81-5.14-3.74-6.1-.29-6.68-2.49-.58-2.2,1.54-3.23,3.93-4.33,2.39-1.09,4.19,.74,5.04,3.79,.85,3.05,3.21,2.94,2.91-1.15-.3-4.08,3.27-6.56,11.17-7.75,7.89-1.19,10.56,2.67,12.79,.03,2.23-2.64,2.42-9.15,1.14-14.35-1.29-5.2-4.44-2.4-9.1,1.44-4.66,3.85-2.9-2.2-.6-7.05,2.31-4.85,5.23-1.03,8.58-.03,3.35,1,4.01,5.22,7.18,2.06,3.17-3.16,3.2-9.23-.95-12.1-4.14-2.87-14.78,3-8.68-.68,6.09-3.68,9.33-5.7,12.85-5.51,3.53,.2,2.09,4.38,3.98,4.96,1.89,.58,5.21-2.65,4.04-.85-1.17,1.8,.41,2.88-.51,7.01-.92,4.13-3.8,5.53-6.6,9.7-2.8,4.17-1.87,12.33,2.73,6.98Z" style="fill:#6f6f6e;"/><path d="M114.23,24.83c.35,2.97,.21,7.16-2.65,9.68-4.81,4.24-3.89-3.11-9.95-3.05-6.06,.06-10.26,5.45-13.62,9.78-3.36,4.33,3.59,7.67-.34,7.57-3.93-.1-5.06-3.18-4.73-5.63,.33-2.44-3.92-3.04-4.08,.05-.16,3.09,.76,6.16-1.87,8.57-2.64,2.41-5.66,4.51-4.62,6.39,1.04,1.88,2.79,2.94,5.74,1.48,2.95-1.47,4.5-3.04,8.46,1.58,3.96,4.62,10.28,4.09,11.28,6.28,1,2.19-1.5,3.58-5.61,2.62-4.11-.96-5.98-4.38-8.19-6.45-2.21-2.07-7.9-4.11-11.34-2.66-3.44,1.45-2.58,2.93-6.23,4.71-3.65,1.78-4.32,6.25-3.85,10.31,.47,4.06,2.58,5.1,5.75,6.12,3.17,1.02,7,2.2,6.55,4.43-.38,1.92-.62,4.5-.59,6.9h0s0,0,0,.01c0,.01,0,.02,0,.03h0c0,.36,.02,.72,.04,1.07,.15,2.7-1.46,1.03-2.42,6.71-.16,.94-.34,1.87-.51,2.77l8.66-12.08h.04s-8.7,12.13-8.7,12.13c-.86,4.51-1.61,8.21,.32,8.58,2.31,.45,4.91,1.25,10.72-4.11,5.81-5.36,6.75-5.01,7.59-6.6,.84-1.59,.69-2.97,2.93-5.2,2.24-2.23,7.86-5.09,8.98-6.99,1.12-1.9-1.08-.65-3.12-1.83-2.04-1.18-1.21-1.2-2.02-4.89-.81-3.7-.94-8.02-1.39-9.46-.46-1.44,.61-2.37,1.14-1.56s.89,5.46,1.14,8.48c.25,3.02,.29,5.73,1.15,6.22,.87,.49,7.65,.21,9.62-1.54,1.98-1.75,2.57-1.58,1.35-2.58-1.22-1.01-4.41-4.29-4.31-5.75,.1-1.45,1.2-.27,1.95,.84,.75,1.11,4.1,2.47,5.9,3.86,1.76,1.36,5.43,4.77,7.04,11.6,1.17-2.26,2.21-4.61,3.12-7.05,8.01-21.46,3.72-44.49-9.34-61.36Z" style="fill:#6f6f6e;"/><path d="M90.04,106.25c-4.08,3.94-3.04,6.81-.79,5.79,2.24-1.02,7.23-6.73,5.69-7.93,0,0-.82-1.8-4.9,2.14Z" style="fill:#6f6f6e;"/></g><path d="M116.95,33.77c-1.73-4.73-4.57-9.45-8.46-13.79-2.61-.31-6.5,.64-11.53,2.89,1.54,1.71,2.66,3.58,3.34,5.44,6.93,.83,12.55,2.72,16.66,5.45Z" style="fill:none;"/><path d="M87.82,40.95c1.99,.34,3.93,.31,5.68-.11-1.77-4.45-3.83-8.77-6.17-12.87,.38,4.14,.54,8.5,.48,12.98Z" style="fill:none;"/><path d="M2.19,78.19c-.02-.19-.04-.37-.05-.56-.13-.43-.25-.87-.36-1.3,.13,.62,.26,1.24,.41,1.86Z" style="fill:none;"/><path d="M87.81,41.67c-.14,8.4-1.01,17.23-2.48,25.91,5.28,.92,10.46,.83,15.13-.31-1.2-8.63-3.44-17.4-6.68-25.73-1.85,.45-3.89,.48-5.97,.12Z" style="fill:none;"/><path d="M85.21,68.32c-1.5,8.68-3.6,17.19-6.17,24.94,7.6,1.32,15.04,1.2,21.76-.44,.99-7.73,.89-16.19-.24-24.81-4.74,1.15-10,1.24-15.35,.31Z" style="fill:none;"/><path d="M76.35,34.16c3.74-2.31,7.42-4.39,10.99-6.19-4.55,0-9.2,.33-13.85,.96,.54,1.78,1.5,3.57,2.86,5.23Z" style="fill:none;"/><path d="M45.61,21.5c-8.3,.63-16.05,2.46-22.69,5.4-1.31,6.18-.93,12.93,1.06,19.73,6.56-4.37,14.2-8.19,22.38-11.21-1.4-4.8-1.67-9.56-.75-13.92Z" style="fill:none;"/><path d="M6.21,39.86c-.24,.34-.47,.68-.7,1.02-.69,1.06-1.3,2.14-1.82,3.24-.71,2.18-1.31,4.39-1.78,6.63-1.66,7.9-1.83,16.11-.4,24.17,.19,.77,.39,1.54,.61,2.31-.13-4.35,1.34-9.11,4.58-14.1,.23-.35,.46-.69,.7-1.03-2.24-7.67-2.66-15.27-1.19-22.24Z" style="fill:none;"/><path d="M7.92,62.31c2.34,7.67,6.49,15.38,12.35,22.56,3.71-5.41,8.64-11.25,14.35-17.12-5.24-6.42-8.94-13.3-11.03-20.15-6.49,4.45-11.89,9.43-15.67,14.71Z" style="fill:none;"/><path d="M95,21.55c-1.21-1.08-2.53-1.99-3.9-2.72-1,2.61-2.25,5.66-3.76,9.13,3.33-2.07,6.36-3.74,9.05-5.04-.43-.47-.9-.93-1.39-1.38Z" style="fill:none;"/><path d="M78.82,93.93c-2.6,7.71-5.66,14.66-9.07,20.25,8.56,1.49,16.95,1.35,24.52-.5,3.26-5.59,5.4-12.51,6.45-20.19-6.76,1.65-14.25,1.77-21.9,.44Z" style="fill:none;"/><path d="M47.18,35.57c1.44,4.73,4,9.49,7.62,13.92,6.84-5.5,13.98-10.62,20.96-14.97-1.43-1.75-2.44-3.63-3.01-5.5-8.68,1.23-17.38,3.49-25.57,6.54Z" style="fill:none;"/><path d="M24.15,47.22c2.08,6.8,5.76,13.65,10.96,20.03,5.76-5.87,12.28-11.76,19.1-17.28-3.67-4.5-6.27-9.33-7.73-14.13-8.15,3.09-15.78,6.97-22.33,11.38Z" style="fill:none;"/><path d="M6.9,63.79c-3.25,4.98-4.72,9.73-4.6,14.05,2.15,7.06,5.97,14.17,11.38,20.78,.51-3.16,2.34-7.26,5.58-12.25,.22-.34,.45-.69,.69-1.04-5.87-7.19-10.01-14.9-12.35-22.57-.24,.35-.47,.69-.7,1.03Z" style="fill:none;"/><path d="M121.61,38.04c-1.34-2.99-2.93-5.93-4.78-8.76-2.13-3.27-4.52-6.28-7.12-9.03-.31-.1-.64-.19-1.01-.24,3.95,4.4,6.83,9.19,8.59,13.99,1.73,1.2,3.17,2.55,4.31,4.04Z" style="fill:none;"/><path d="M101.3,93.34c-1.01,7.67-3.12,14.59-6.38,20.18,6.54-1.69,12.46-4.67,17.32-8.99,.06-.05,.11-.1,.17-.15,1.02-1.23,2-2.48,2.92-3.77,2.43-5.09,3.5-10.9,3.31-17.08-.59,.62-1.21,1.21-1.86,1.79-4.34,3.86-9.62,6.53-15.47,8.03Z" style="fill:none;"/><path d="M99.75,28.4c-3.77-.46-7.92-.62-12.42-.43,4.7,1.61,9.06,3.51,13.03,5.64,.23-1.65,.02-3.43-.61-5.21Z" style="fill:none;"/><path d="M72.41,23.45c-8.87-1.93-17.75-2.57-26.08-2-.91,4.3-.64,8.99,.74,13.72,8.21-2.98,16.93-5.15,25.64-6.3-.55-1.87-.65-3.72-.29-5.42Z" style="fill:none;"/><path d="M93.98,115.05c-2.21,3.4-4.75,6.01-7.51,7.86,4.09-1.57,8.08-3.59,11.89-6.08,5.06-3.3,9.49-7.2,13.27-11.54-4.8,4.17-10.59,7.06-16.99,8.71-.22,.36-.44,.71-.66,1.05Z" style="fill:none;"/><path d="M115.97,99.67c4.76-6.93,8.05-14.69,9.76-22.79,.73-3.48,1.18-7.02,1.32-10.58-.98,6.29-3.64,12.06-8.04,16.81,.2,5.97-.78,11.6-3.04,16.56Z" style="fill:none;"/><path d="M113.1,60.1c3.06-3.3,4.89-7.32,5.57-11.69-4.4-5.31-10.38-10.21-17.7-14.31-.26,1.72-.99,3.31-2.2,4.62,6.07,6.72,10.9,14.02,14.33,21.39Z" style="fill:none;"/><path d="M98.25,38.14c1.15-1.24,1.84-2.75,2.09-4.39-3.96-2.18-8.31-4.13-13-5.78,3.97,3.17,7.62,6.59,10.91,10.18Z" style="fill:none;"/><path d="M100.97,67.91c1.21,8.6,1.36,17.06,.41,24.77,5.81-1.5,11.06-4.14,15.37-7.98,.65-.57,1.26-1.17,1.85-1.78-.3-7.01-2.19-14.48-5.48-21.9-.41,.43-.85,.85-1.3,1.26-3.04,2.71-6.75,4.57-10.85,5.63Z" style="fill:none;"/><path d="M58.99,125.77c-.83,.42-1.64,.72-2.44,.9,4.86,.57,9.79,.57,14.7,0-3.98,.13-8.1-.17-12.26-.89Z" style="fill:none;"/><path d="M31.88,10.33c-1.59,.49-3.11,1.09-4.56,1.81-8.06,5.69-14.41,12.95-18.9,21.09-.73,1.81-1.32,3.67-1.75,5.59,3.79-5.14,9.24-9.23,15.8-12.2,1.41-6.19,4.52-11.79,9.41-16.3Z" style="fill:none;"/><path d="M99.7,28.25c-.65-1.78-1.72-3.55-3.18-5.18-2.74,1.25-5.8,2.88-9.18,4.9,4.47-.24,8.6-.13,12.36,.28Z" style="fill:none;"/><path d="M69.46,114.65c-.22,.36-.45,.71-.67,1.06-3.25,4.98-6.47,8.26-9.53,9.91,4.57,.79,9.09,1.08,13.44,.85,4.34-.61,8.64-1.68,12.85-3.22,2.87-1.86,5.49-4.53,7.79-8.05,.22-.34,.44-.7,.66-1.05-7.58,1.84-15.97,1.98-24.53,.49Z" style="fill:none;"/><path d="M97.67,38.71c.17-.15,.33-.3,.48-.47-3.26-3.62-6.88-7.07-10.82-10.28,2.39,4.08,4.5,8.39,6.32,12.83,1.52-.39,2.89-1.08,4.01-2.08Z" style="fill:none;"/><path d="M100.99,33.95c7.33,4.02,13.31,8.84,17.73,14.09,.6-4.39,.04-9.13-1.63-13.87-4.13-2.8-9.78-4.78-16.74-5.69,.66,1.87,.88,3.74,.64,5.47Z" style="fill:none;"/><path d="M93.94,41.51c3.33,8.3,5.65,17.05,6.92,25.67,4.04-1.04,7.69-2.88,10.68-5.55,.45-.4,.88-.81,1.29-1.24-3.37-7.42-8.15-14.77-14.16-21.56-.16,.17-.33,.33-.51,.49-1.18,1.05-2.62,1.78-4.22,2.19Z" style="fill:none;"/><path d="M119.09,48.49c4.32,5.27,7.06,10.95,7.98,16.66,0-.04,0-.07,.01-.11,.18-8.9-1.51-17.9-5.2-26.39-1.17-1.56-2.65-2.98-4.44-4.24,1.7,4.8,2.26,9.61,1.65,14.07Z" style="fill:none;"/><path d="M52.29,9.7c-7.16-1.4-13.95-1.25-19.9,.48-4.86,4.48-7.95,10.05-9.35,16.2,6.63-2.9,14.37-4.68,22.66-5.25,.99-4.34,3.17-8.27,6.6-11.43Z" style="fill:none;"/><path d="M14.1,99.47c-.22,1.48-.14,2.74,.22,3.76,.24,.3,.49,.58,.73,.87,.55-.51,1.16-1.02,1.82-1.52-.96-1.03-1.89-2.06-2.77-3.12Z" style="fill:none;"/><path d="M43.04,75.5c3.8,3.39,7.87,6.34,12.09,8.83,4.3-7.11,8.81-14.72,13.21-22.31-2.98-1.76-5.85-3.83-8.53-6.23-1.94-1.74-3.7-3.56-5.27-5.44-6.77,5.59-13.24,11.53-18.97,17.44,2.22,2.67,4.72,5.25,7.47,7.71Z" style="fill:none;"/><path d="M78.42,36.31c.99,.89,2.06,1.66,3.16,2.3,2.06-3.74,4-7.32,5.76-10.65-3.53,1.85-7.17,3.98-10.87,6.33,.58,.7,1.23,1.37,1.95,2.01Z" style="fill:none;"/><path d="M75.75,19.15c-.21-.13-.42-.27-.63-.4,1.01-.9,2.2-1.56,3.52-1.99-5.34-5.71-10.98-9.83-16.53-12.24-3.33,1.09-6.36,2.76-8.91,5.03-.2-.04-.4-.09-.61-.13,2.59-2.3,5.66-4,9.04-5.11-3.85-1.61-7.65-2.4-11.28-2.34-4.28,.93-8.5,2.31-12.6,4.17-1.75,1.06-3.4,2.27-4.93,3.64-.17,.05-.34,.1-.51,.15,1.36-1.21,2.8-2.29,4.33-3.27-2.51,1.2-4.97,2.57-7.36,4.13-.37,.24-.74,.49-1.1,.74,15.58-7.36,39.01-1.56,59.17,16.42-2.62-4.02-5.39-7.59-8.24-10.7-1.25,.41-2.39,1.04-3.35,1.89Z" style="fill:none;"/><path d="M77.12,3.08c-.71-.62-1.44-1.13-2.19-1.54-7.82-1.4-15.91-1.34-23.83,.28,3.53,0,7.2,.8,10.92,2.38,4.6-1.43,9.77-1.79,15.1-1.12Z" style="fill:none;"/><path d="M79.24,17.22c2.81,3.13,5.53,6.72,8.1,10.75-.65-4.18-1.5-7.9-2.51-11.17-1.97-.25-3.88-.11-5.59,.42Z" style="fill:none;"/><path d="M60.31,55.23c2.64,2.36,5.47,4.41,8.4,6.13,4.39-7.59,8.67-15.15,12.54-22.15-1.16-.68-2.27-1.49-3.32-2.42-.76-.67-1.44-1.38-2.05-2.12-6.91,4.43-13.98,9.63-20.77,15.2,1.55,1.85,3.28,3.65,5.19,5.36Z" style="fill:none;"/><path d="M84.66,16.29c-1.93-5.99-4.43-10.36-7.3-12.99-5.25-.66-10.34-.3-14.87,1.11,5.49,2.44,11.04,6.58,16.3,12.32,1.79-.56,3.8-.7,5.87-.44Z" style="fill:none;"/><path d="M29.2,94.17c1.97,1.76,4.01,3.4,6.09,4.94,1.11-1.02,2.42-2.17,3.92-3.64,.12-.11,.22-.22,.33-.34,1.31-.06,2.7-.1,4.17-.1,1.6,0,3.22,.04,4.79,.1,2.01-3.23,4.11-6.65,6.26-10.2-4.24-2.5-8.33-5.47-12.16-8.88-2.77-2.47-5.28-5.07-7.52-7.75-5.68,5.91-10.6,11.76-14.3,17.18,2.51,3.01,5.31,5.91,8.42,8.68Z" style="fill:none;"/><path d="M118.98,82.51c4.4-4.75,7.04-10.53,8.01-16.82-.91-5.76-3.64-11.49-7.95-16.82-.68,4.44-2.55,8.51-5.65,11.87,3.34,7.37,5.26,14.8,5.6,21.78Z" style="fill:none;"/><path d="M22.35,27.16c-6.58,3.01-12.03,7.12-15.82,12.26-1.47,6.96-1.05,14.56,1.19,22.23,3.78-5.27,9.19-10.23,15.69-14.64-2-6.84-2.38-13.63-1.07-19.85Z" style="fill:none;"/><path d="M4.03,43.12c.48-.96,1.02-1.9,1.62-2.83,.22-.35,.46-.69,.7-1.03,.39-1.71,.9-3.38,1.52-5-1.51,2.86-2.79,5.82-3.84,8.85Z" style="fill:none;"/><path d="M73.19,23.48c4.75,1.12,9.49,2.61,14.14,4.48-3.81-3.33-7.74-6.24-11.7-8.71-1.27,1.17-2.07,2.62-2.44,4.23Z" style="fill:none;"/><path d="M82.83,124.75c-.98,.31-1.97,.59-2.96,.85,.67-.13,1.33-.27,1.99-.43,.33-.13,.65-.27,.98-.41Z" style="fill:none;"/><path d="M52.9,9.83c-3.37,3.11-5.52,6.98-6.5,11.26,8.32-.5,17.18,.22,26.04,2.22,.38-1.69,1.23-3.21,2.57-4.44-7.4-4.53-14.93-7.55-22.1-9.04Z" style="fill:none;"/><path d="M26.54,97.56c-.27,3.21-.73,6.88-1.09,11.03-.05,.53-.08,1.01-.11,1.49,1.32,1.05,2.68,2.05,4.05,3,.31-2.22,.6-4.77,1.11-6.95,.68-2.91,2.1-4.54,4.36-6.64-2.04-1.52-4.05-3.13-5.98-4.86-3.11-2.77-5.92-5.68-8.42-8.69-.23,.35-.46,.7-.69,1.04-3.25,4.98-5.08,9.07-5.62,12.2,.92,1.1,1.9,2.19,2.91,3.26,2.39-1.79,5.48-3.51,9.49-4.89Z" style="fill:none;"/><path d="M2.38,78.99c1.66,6.71,4.44,13.25,8.43,19.37,.97,1.5,2.01,2.93,3.08,4.32-.37-1.04-.46-2.3-.25-3.78-5.37-6.58-9.17-13.65-11.32-20.67,.01,.26,.04,.51,.06,.76Z" style="fill:none;"/><path d="M93.58,7.97c-5.28-2.81-10.9-4.84-16.71-6.07-.46-.1-.91-.19-1.37-.27,.71,.4,1.4,.9,2.07,1.5,5.33,.72,10.81,2.47,16.04,5.19,0-.13-.02-.24-.03-.35Z" style="fill:none;"/><path d="M96.82,22.73c4.96-2.34,8.78-3.36,11.33-3.12-1.15-1.26-2.39-2.48-3.71-3.66-3.23-2.89-6.74-5.31-10.38-7.25-.07,1.68-.99,4.94-2.8,9.72,1.44,.77,2.82,1.72,4.1,2.86,.52,.47,1.01,.95,1.47,1.44Z" style="fill:none;"/><path d="M64.45,113.78c-2.06,2.79-4.51,5.95-7.5,8.13l-.61,.45c-.72,.54-1.66,1.24-2.81,2,1.69,.44,3.37,.84,5.05,1.15,3.02-1.66,6.23-4.94,9.47-9.92,.22-.34,.45-.7,.67-1.05-1.38-.25-2.77-.57-4.16-.91l-.12,.16Z" style="fill:none;"/><path d="M108.36,19.63c.34,.04,.66,.11,.95,.2-4.54-4.71-9.7-8.59-15.27-11.62,0,.11,.01,.22,.01,.34,3.7,1.97,7.26,4.43,10.54,7.35,1.35,1.2,2.6,2.44,3.77,3.72Z" style="fill:none;"/><path d="M46.62,2.35c-.33,.06-.66,.13-.99,.21-.66,.21-1.31,.45-1.95,.7,.98-.33,1.96-.63,2.94-.9Z" style="fill:none;"/><path d="M49.39,95.17c5.54,.26,10.4,.82,12.1,1.18,.64,.14,1.09,.2,1.35,.22l11.5-3.05c0,.38,.02,.75,.04,1.12,.15,2.7-1.46,1.03-2.42,6.71-.16,.94-.34,1.87-.51,2.77l-2.18,3.04c-.13,.18-3.18,4.43-4.35,5.98h0c1.37,.34,2.74,.65,4.11,.9,3.41-5.59,6.5-12.53,9.15-20.23-7.65-1.41-15.44-4.27-22.79-8.51-2.05,3.43-4.06,6.74-5.99,9.87Z" style="fill:none;"/><path d="M93.62,8.47c-5.15-2.68-10.55-4.4-15.8-5.12,2.79,2.62,5.2,6.98,7.03,12.95,2.07,.28,4.21,.96,6.24,2.02,1.71-4.83,2.54-8.14,2.54-9.86Z" style="fill:none;"/><path d="M51.17,125.8c1.54,.31,3.09,.57,4.65,.77,.82-.19,1.65-.49,2.5-.93-1.67-.31-3.34-.7-5.01-1.14-.64,.42-1.36,.86-2.13,1.3Z" style="fill:none;"/><path d="M87.65,40.92c.11-4.48,.01-8.83-.31-12.95-1.71,3.37-3.59,6.98-5.6,10.75,1.91,1.1,3.93,1.84,5.91,2.21Z" style="fill:none;"/><path d="M85,16.82c.96,3.26,1.75,6.98,2.34,11.15,1.45-3.51,2.65-6.58,3.59-9.22-1.94-1.01-3.96-1.65-5.94-1.92Z" style="fill:none;"/><path d="M69.14,61.62c5.08,2.93,10.46,4.9,15.74,5.88,1.54-8.67,2.5-17.49,2.75-25.86-2.09-.39-4.21-1.17-6.22-2.32-3.77,7.06-7.96,14.67-12.27,22.3Z" style="fill:none;"/><path d="M55.75,84.69c7.3,4.21,15.04,7.06,22.65,8.46,2.62-7.75,4.78-16.25,6.36-24.91-5.37-.99-10.83-3-15.98-5.97-4.33,7.64-8.77,15.28-13.03,22.42Z" style="fill:none;"/><path d="M73.44,28.77c4.67-.58,9.33-.86,13.9-.81-4.66-1.83-9.41-3.27-14.17-4.35-.34,1.61-.24,3.38,.28,5.15Z" style="fill:none;"/><g><path d="M83.78,124.63c.49-.14,.98-.29,1.46-.45-.48,.16-.97,.3-1.46,.45Z" style="fill:#ececec;"/><path d="M87.01,123.56c-.58,.22-1.18,.42-1.77,.62,.2-.07,.42-.12,.62-.19l1.16-.43Z" style="fill:#ececec;"/><path d="M126.91,53.76l-.23-1.31c.15,.8,.27,1.6,.37,2.39-.05-.36-.09-.72-.15-1.08Z" style="fill:#ececec;"/><path d="M127.44,58.7c-.06-1.24-.19-2.49-.36-3.75,.1,.8,.18,1.6,.24,2.4-.52-5.16-1.68-10.29-3.49-15.28,.1,.24,.19,.48,.28,.73l-.13-.38-.13-.34c-.09-.25-.19-.5-.3-.74-1.6-4.25-3.69-8.39-6.27-12.35-6.13-9.41-14.32-16.66-23.58-21.56,0,0,0,0,0,0l-.54-.28s.01,0,.02,.01c-6.25-3.23-12.98-5.4-19.9-6.44-.35-.09-.7-.17-1.06-.22l-.66-.08c.36,.04,.71,.12,1.06,.21-8.32-1.16-16.89-.69-25.19,1.52-.42,.07-.83,.15-1.24,.25,.74-.23,1.49-.44,2.25-.63l-.41,.1c-.77,.19-1.52,.41-2.27,.64-.35,.09-.7,.19-1.05,.3l-.83,.27c.44-.14,.88-.27,1.32-.39-.95,.31-1.88,.66-2.8,1.03-4.62,1.65-9.13,3.86-13.42,6.66-1.81,1.18-3.53,2.43-5.18,3.75-.79,.56-1.55,1.17-2.28,1.82l-.82,.75c.71-.65,1.44-1.26,2.21-1.83-4.12,3.43-7.71,7.3-10.75,11.49,.19-.27,.38-.53,.57-.79l-.7,.96c-.04,.06-.09,.12-.13,.18-14.83,20.75-16.31,49.31-1.55,71.97,1.34,2.05,2.78,3.99,4.3,5.84,.13-.13,.26-.25,.4-.38-.24-.29-.49-.58-.73-.87-.37-1.02-.45-2.28-.22-3.76,.88,1.05,1.81,2.09,2.77,3.12,.06-.05,.12-.09,.18-.14-1.01-1.07-1.99-2.16-2.91-3.26,.54-3.12,2.38-7.21,5.62-12.2,.23-.35,.46-.69,.69-1.04,2.51,3.01,5.32,5.92,8.42,8.69,1.93,1.73,3.94,3.34,5.98,4.86,.14-.13,.27-.25,.41-.38-2.08-1.54-4.12-3.18-6.09-4.94-3.11-2.77-5.91-5.68-8.42-8.68,3.7-5.42,8.62-11.28,14.3-17.18,2.24,2.68,4.75,5.28,7.52,7.75,3.83,3.41,7.92,6.38,12.16,8.88-2.15,3.55-4.25,6.97-6.26,10.2,.3,.01,.6,.02,.9,.04,1.93-3.13,3.94-6.44,5.99-9.87,7.35,4.24,15.13,7.1,22.79,8.51-2.64,7.71-5.73,14.64-9.15,20.23-1.37-.25-2.74-.56-4.11-.89l-.34,.46c1.39,.34,2.78,.65,4.16,.91-.22,.36-.45,.71-.67,1.05-3.25,4.98-6.45,8.26-9.47,9.92-1.68-.31-3.37-.7-5.05-1.15-.08,.05-.15,.1-.24,.16,1.67,.44,3.35,.83,5.01,1.14-.85,.44-1.68,.75-2.5,.93-1.56-.2-3.11-.46-4.65-.77-.23,.13-.47,.26-.71,.39,.87,.19,1.74,.36,2.61,.51-.09-.01-.19-.02-.28-.04l.65,.11c.12,.02,.24,.03,.36,.04,8.16,1.3,16.58,1.03,24.78-.92,.97-.17,1.93-.37,2.88-.6-.65,.24-1.31,.44-1.97,.6l.83-.21c.58-.15,1.16-.33,1.73-.54,.59-.15,1.15-.36,1.73-.53-.44,.13-.88,.27-1.33,.38,.43-.17,.87-.36,1.29-.56,5.15-1.7,10.16-4.07,14.92-7.17,5.76-3.75,10.71-8.28,14.81-13.35-.02,.03-.04,.07-.07,.11-.99,1.52-2.09,2.91-3.3,4.17l.76-.81c1.08-1.17,2.07-2.44,2.96-3.81,.1-.16,.2-.32,.3-.48,.3-.39,.6-.77,.89-1.17,1.49-1.68,2.79-3.47,3.9-5.35l.6-1.03c-1.07,1.89-2.33,3.69-3.78,5.39,6.57-9.19,10.52-19.9,11.6-30.96,0,1.31-.1,2.61-.3,3.9l.14-.95c.18-1.26,.25-2.53,.24-3.8,.29-3.46,.31-6.95,.03-10.43Zm-17.72-38.45c2.6,2.74,4.98,5.75,7.12,9.03,1.85,2.84,3.44,5.77,4.78,8.76-1.14-1.49-2.58-2.84-4.31-4.04-1.76-4.8-4.64-9.59-8.59-13.99,.36,.05,.7,.13,1.01,.24ZM22.92,26.9c6.64-2.94,14.39-4.77,22.69-5.4-.92,4.36-.65,9.12,.75,13.92-8.17,3.02-15.81,6.84-22.38,11.21-1.99-6.8-2.37-13.55-1.06-19.73Zm.5,20.11c-6.5,4.41-11.91,9.36-15.69,14.64-2.24-7.66-2.66-15.26-1.19-22.23,3.79-5.14,9.24-9.26,15.82-12.26-1.31,6.22-.93,13.01,1.07,19.85Zm49.28-18.14c-8.71,1.14-17.43,3.32-25.64,6.3-1.38-4.73-1.64-9.42-.74-13.72,8.33-.56,17.21,.08,26.08,2-.36,1.7-.26,3.55,.29,5.42Zm-26.3-7.78c.98-4.28,3.12-8.15,6.5-11.26,7.18,1.48,14.7,4.51,22.1,9.04-1.33,1.23-2.18,2.76-2.57,4.44-8.85-2.01-17.72-2.72-26.04-2.22Zm-.71,.05c-8.29,.57-16.02,2.34-22.66,5.25,1.4-6.15,4.49-11.72,9.35-16.2,5.95-1.73,12.75-1.88,19.9-.48-3.43,3.16-5.61,7.09-6.6,11.43Zm.79,14.7c1.47,4.8,4.06,9.63,7.73,14.13-6.82,5.52-13.34,11.41-19.1,17.28-5.2-6.38-8.88-13.22-10.96-20.03,6.55-4.42,14.17-8.29,22.33-11.38Zm.7-.26c8.18-3.05,16.89-5.31,25.57-6.54,.57,1.87,1.58,3.75,3.01,5.5-6.98,4.35-14.11,9.47-20.96,14.97-3.62-4.43-6.18-9.19-7.62-13.92Zm28.7-.89c.61,.73,1.29,1.44,2.05,2.12,1.04,.93,2.16,1.74,3.32,2.42-3.86,7-8.14,14.56-12.54,22.15-2.93-1.73-5.76-3.78-8.4-6.14-1.91-1.71-3.65-3.5-5.19-5.36,6.79-5.57,13.86-10.76,20.77-15.2Zm5.54,4.64c2.01,1.16,4.13,1.94,6.22,2.32-.24,8.37-1.2,17.19-2.75,25.86-5.29-.98-10.67-2.95-15.74-5.88,4.32-7.63,8.51-15.24,12.27-22.3Zm17.25-.49c6.01,6.78,10.79,14.14,14.16,21.56-.41,.42-.84,.84-1.29,1.24-3,2.67-6.65,4.51-10.68,5.55-1.27-8.61-3.59-17.36-6.92-25.67,1.59-.41,3.04-1.14,4.22-2.19,.18-.16,.35-.32,.51-.49Zm.1-.11c1.21-1.31,1.93-2.89,2.2-4.62,7.32,4.1,13.29,9,17.7,14.31-.67,4.37-2.51,8.39-5.57,11.69-3.42-7.37-8.26-14.67-14.33-21.39Zm1.69,28.56c-4.67,1.14-9.85,1.22-15.13,.31,1.47-8.69,2.33-17.52,2.48-25.91,2.08,.36,4.13,.33,5.97-.12,3.24,8.33,5.48,17.1,6.68,25.73Zm-15.25,1.05c5.36,.93,10.61,.84,15.35-.31,1.14,8.62,1.23,17.09,.24,24.81-6.72,1.64-14.17,1.76-21.76,.44,2.57-7.76,4.67-16.27,6.17-24.94Zm15.76-.41c4.1-1.06,7.8-2.92,10.85-5.63,.46-.41,.89-.82,1.3-1.26,3.3,7.42,5.18,14.89,5.48,21.9-.59,.61-1.2,1.21-1.85,1.78-4.31,3.84-9.56,6.49-15.37,7.98,.95-7.72,.8-16.17-.41-24.77Zm12.42-7.17c3.1-3.35,4.97-7.43,5.65-11.87,4.31,5.33,7.04,11.07,7.95,16.82-.97,6.29-3.61,12.07-8.01,16.82-.33-6.98-2.25-14.4-5.6-21.78Zm5.33-12.7c-4.41-5.24-10.4-10.06-17.73-14.09,.24-1.74,.02-3.61-.64-5.47,6.96,.92,12.62,2.89,16.74,5.69,1.67,4.73,2.23,9.47,1.63,13.87Zm-18.43-19.72c-.69-1.87-1.81-3.73-3.34-5.44,5.04-2.26,8.92-3.2,11.53-2.89,3.89,4.34,6.73,9.05,8.46,13.79-4.1-2.73-9.72-4.62-16.66-5.45Zm9.02-8.48c-.29-.09-.61-.16-.95-.2-1.16-1.27-2.42-2.52-3.77-3.72-3.28-2.93-6.84-5.39-10.54-7.36,0-.13,0-.24-.01-.34,5.57,3.02,10.73,6.91,15.27,11.62Zm-15.26-11.13c3.64,1.94,7.15,4.36,10.38,7.25,1.33,1.18,2.56,2.4,3.71,3.66-2.55-.24-6.37,.78-11.33,3.12-.45-.5-.94-.98-1.47-1.44-1.28-1.14-2.66-2.1-4.1-2.86,1.81-4.78,2.73-8.03,2.8-9.72Zm-2.97,9.63c-2.03-1.06-4.17-1.74-6.24-2.02-1.83-5.97-4.24-10.33-7.03-12.95,5.26,.71,10.66,2.44,15.8,5.12,0,1.72-.83,5.02-2.54,9.86Zm-6.42-2.04c-2.07-.26-4.08-.12-5.87,.44-5.26-5.74-10.81-9.88-16.3-12.32,4.54-1.41,9.63-1.76,14.87-1.11,2.87,2.63,5.37,7,7.3,12.99Zm-7.78-14.38c5.8,1.22,11.43,3.26,16.71,6.07,.01,.11,.02,.22,.03,.35-5.23-2.72-10.71-4.47-16.04-5.19-.67-.6-1.36-1.1-2.07-1.5,.46,.09,.92,.18,1.37,.27Zm-1.95-.37c.75,.41,1.48,.92,2.19,1.54-5.33-.67-10.49-.31-15.1,1.12-3.71-1.59-7.39-2.39-10.92-2.38,7.92-1.62,16.01-1.68,23.83-.28Zm-29.31,1.03c.33-.08,.66-.15,.99-.21-.99,.28-1.97,.58-2.94,.9,.64-.25,1.29-.48,1.95-.7ZM29.28,10.8c2.39-1.56,4.85-2.93,7.36-4.13-1.53,.97-2.98,2.06-4.33,3.27,.17-.05,.34-.1,.51-.15,1.53-1.36,3.18-2.57,4.93-3.64,4.1-1.86,8.32-3.24,12.6-4.17,3.63-.06,7.44,.73,11.28,2.34-3.38,1.11-6.45,2.8-9.04,5.11,.2,.04,.41,.08,.61,.13,2.55-2.27,5.58-3.94,8.91-5.03,5.56,2.42,11.19,6.53,16.53,12.24-1.32,.43-2.51,1.09-3.52,1.99,.21,.13,.42,.26,.63,.4,.96-.85,2.09-1.48,3.35-1.89,2.86,3.11,5.62,6.69,8.24,10.7-2.57-4.03-5.29-7.62-8.1-10.75,1.7-.53,3.62-.66,5.59-.42,1.01,3.26,1.86,6.99,2.51,11.17-.59-4.17-1.38-7.89-2.34-11.15,1.97,.27,4,.92,5.94,1.92-.94,2.64-2.14,5.71-3.59,9.22,1.51-3.48,2.76-6.52,3.76-9.13,1.37,.73,2.69,1.64,3.9,2.72,.5,.44,.96,.9,1.39,1.38-2.7,1.29-5.72,2.97-9.05,5.04,3.38-2.02,6.44-3.65,9.18-4.9,1.46,1.63,2.53,3.4,3.18,5.18-3.76-.41-7.89-.52-12.36-.28,4.49-.18,8.64-.03,12.42,.43,.63,1.78,.84,3.56,.61,5.21-3.97-2.13-8.33-4.03-13.02-5.64,4.69,1.66,9.04,3.61,13,5.78-.25,1.64-.94,3.15-2.09,4.39-3.29-3.59-6.94-7.01-10.91-10.18,3.94,3.21,7.55,6.66,10.82,10.28-.15,.16-.32,.32-.48,.47-1.13,1-2.5,1.69-4.01,2.08-1.82-4.44-3.93-8.75-6.32-12.83,2.34,4.1,4.4,8.42,6.17,12.87-1.76,.43-3.7,.46-5.68,.11,.05-4.49-.1-8.85-.48-12.98,.32,4.13,.42,8.48,.31,12.95-1.99-.37-4.01-1.11-5.91-2.21,2.01-3.77,3.89-7.38,5.6-10.75-1.77,3.33-3.7,6.91-5.76,10.65-1.1-.65-2.16-1.42-3.16-2.3-.72-.64-1.37-1.32-1.95-2.01,3.7-2.35,7.35-4.49,10.87-6.33-3.57,1.8-7.25,3.88-10.99,6.19-1.36-1.66-2.32-3.45-2.86-5.23,4.65-.63,9.3-.96,13.85-.96-4.57-.05-9.23,.23-13.9,.81-.52-1.78-.62-3.54-.28-5.15,4.76,1.07,9.51,2.52,14.17,4.35-4.65-1.87-9.4-3.37-14.14-4.48,.37-1.61,1.17-3.06,2.44-4.23,3.97,2.47,7.89,5.38,11.7,8.71C67.18,9.99,43.76,4.18,28.17,11.55c.37-.25,.73-.5,1.1-.74Zm-1.96,1.34c1.45-.72,2.98-1.32,4.56-1.81-4.89,4.51-8,10.11-9.41,16.3-6.57,2.97-12.02,7.06-15.8,12.2,.44-1.92,1.02-3.79,1.75-5.59,4.49-8.14,10.83-15.41,18.9-21.09ZM7.86,34.27c-.62,1.62-1.13,3.29-1.52,5-.24,.34-.47,.68-.7,1.03-.61,.93-1.14,1.87-1.62,2.83,1.05-3.04,2.33-6,3.84-8.85ZM1.91,50.75c.47-2.24,1.07-4.45,1.78-6.63,.53-1.09,1.13-2.18,1.82-3.24,.22-.34,.46-.69,.7-1.02-1.47,6.97-1.04,14.57,1.19,22.24-.24,.34-.47,.69-.7,1.03-3.24,4.98-4.71,9.75-4.58,14.1-.23-.77-.43-1.54-.61-2.31C.08,66.86,.24,58.65,1.91,50.75Zm-.13,25.58c.11,.43,.23,.87,.36,1.3,0,.19,.03,.38,.05,.56-.14-.62-.28-1.24-.41-1.86Zm9.02,22.03c-3.98-6.11-6.77-12.66-8.43-19.37-.02-.25-.05-.51-.06-.76,2.14,7.03,5.94,14.09,11.32,20.67-.21,1.48-.12,2.74,.25,3.78-1.07-1.39-2.11-2.83-3.08-4.32Zm8.46-11.99c-3.25,4.98-5.07,9.09-5.59,12.25-5.4-6.61-9.22-13.72-11.38-20.78-.12-4.31,1.35-9.06,4.6-14.05,.22-.35,.46-.69,.7-1.03,2.34,7.67,6.49,15.39,12.35,22.57-.24,.35-.47,.7-.69,1.04Zm1-1.5c-5.86-7.18-10.01-14.89-12.35-22.56,3.78-5.28,9.18-10.26,15.67-14.71,2.09,6.85,5.79,13.73,11.03,20.15-5.71,5.87-10.65,11.7-14.35,17.12Zm34.86-.54c-4.22-2.49-8.29-5.43-12.09-8.83-2.76-2.46-5.25-5.04-7.47-7.71,5.72-5.91,12.2-11.85,18.97-17.44,1.57,1.88,3.33,3.7,5.27,5.44,2.68,2.39,5.55,4.47,8.53,6.23-4.4,7.59-8.9,15.2-13.21,22.31Zm.62,.36c4.26-7.14,8.7-14.78,13.03-22.42,5.15,2.97,10.61,4.98,15.98,5.97-1.58,8.66-3.74,17.16-6.36,24.91-7.6-1.4-15.34-4.24-22.65-8.46Zm23.08,9.24c7.64,1.33,15.13,1.21,21.9-.44-1.05,7.68-3.18,14.61-6.45,20.19-7.57,1.84-15.96,1.98-24.52,.5,3.41-5.59,6.47-12.53,9.07-20.25Zm-22.28,32.74c.8-.19,1.61-.48,2.44-.9,4.16,.72,8.28,1.02,12.26,.89-4.91,.58-9.84,.57-14.7,0Zm25.3-1.51c-.65,.16-1.32,.3-1.99,.43,.99-.26,1.98-.54,2.96-.85-.32,.15-.65,.29-.98,.41Zm-9.15,1.31c-4.35,.23-8.87-.06-13.44-.85,3.06-1.66,6.28-4.93,9.53-9.91,.22-.35,.45-.7,.67-1.06,8.56,1.49,16.95,1.35,24.53-.5-.22,.36-.44,.71-.66,1.05-2.29,3.52-4.92,6.19-7.78,8.05-4.2,1.54-8.51,2.61-12.85,3.22Zm25.66-9.64c-3.82,2.49-7.81,4.51-11.89,6.08,2.76-1.85,5.3-4.46,7.51-7.86,.22-.35,.44-.7,.66-1.05,6.4-1.65,12.19-4.54,16.99-8.71-3.77,4.34-8.21,8.24-13.27,11.54Zm16.96-16.23c-.92,1.29-1.89,2.54-2.92,3.77-.06,.05-.11,.1-.17,.15-4.86,4.32-10.77,7.3-17.32,8.99,3.26-5.59,5.37-12.5,6.38-20.18,5.84-1.51,11.13-4.17,15.47-8.03,.65-.58,1.27-1.18,1.86-1.79,.19,6.19-.88,12-3.31,17.08Zm10.41-23.72c-1.71,8.1-5,15.86-9.76,22.79,2.27-4.96,3.24-10.59,3.04-16.56,4.4-4.75,7.05-10.53,8.04-16.81-.14,3.56-.58,7.1-1.32,10.58Zm1.34-11.73c-.92-5.72-3.66-11.4-7.98-16.66,.61-4.46,.05-9.27-1.65-14.07,1.79,1.26,3.27,2.68,4.44,4.24,3.69,8.49,5.38,17.49,5.2,26.39,0,.04,0,.07-.01,.11Z" style="fill:#ececec;"/></g><path d="M39.66,112.82c-4.8,3.12-23.96,3.18-23.96,3.18,0,0,5.4,7.67,16.34,7.87,11.68,.22,18.2-5.39,20.96-7.4,2.76-2.01,5.44-5.89,6.57-7.39,1.13-1.49,4.24-5.84,4.24-5.84,0,0-.92,.24-3.7-.34-2.78-.58-18.84-2.17-26.99-.29-15.96,3.68-17.43,12.38-17.43,12.38,0,0,15.49-1.03,24.69-3.3,.16-.04,2.09-.71,2.08-.6-.03,.21-2.64,1.6-2.81,1.71Z" style="fill:url(#linear-gradient-2);"/><path d="M101.28,38.16c9.29,23.27-7.31,47.45-29.91,56.48-22.6,9.02-42.64-.54-51.93-23.81-9.29-23.27,1.5-49.44,24.1-58.46,22.6-9.02,48.45,2.53,57.73,25.79Z" style="fill:url(#radial-gradient); opacity:.5;"/></g></g></svg>