<svg width="29" height="29" viewBox="0 0 29 29" fill="none" xmlns="http://www.w3.org/2000/svg">
<path d="M4.83348 14.5C4.83348 9.17128 9.1714 4.83336 14.5002 4.83336C19.8289 4.83336 24.1668 9.17128 24.1668 14.5C24.1668 19.8288 19.8289 24.1667 14.5002 24.1667C9.1714 24.1667 4.83348 19.8288 4.83348 14.5ZM2.41681 14.5C2.41681 21.17 7.83015 26.5834 14.5002 26.5834C21.1702 26.5834 26.5835 21.17 26.5835 14.5C26.5835 7.83002 21.1702 2.41669 14.5002 2.41669C7.83015 2.41669 2.41681 7.83002 2.41681 14.5ZM14.5002 13.2917L10.8751 13.2917C10.2106 13.2917 9.66681 13.8354 9.66681 14.5C9.66681 15.1646 10.2106 15.7084 10.8751 15.7084L14.5002 15.7084L14.5002 17.8713C14.5002 18.415 15.1527 18.6809 15.5272 18.2942L18.8985 14.9229C19.1402 14.6813 19.1402 14.3067 18.8985 14.065L15.5272 10.6938C15.1527 10.3192 14.5002 10.585 14.5002 11.1288V13.2917Z" fill="#202020"/>
</svg>
